<svg width="718" height="249" viewBox="0 0 718 249" fill="none" xmlns="http://www.w3.org/2000/svg">
<path d="M60.4647 130.375C59.3933 130.375 58.5248 131.244 58.5248 132.315C58.5248 133.386 59.3933 134.255 60.4647 134.255V130.375ZM119.587 132.315V134.255H120.116L120.571 133.986L119.587 132.315ZM60.4647 134.255H119.587V130.375H60.4647V134.255ZM120.571 133.986L193.943 90.7679L191.974 87.425L118.602 130.644L120.571 133.986Z" fill="white"/>
<path d="M193.905 86.7065C192.833 86.7065 191.965 87.575 191.965 88.6464C191.965 89.7178 192.833 90.5863 193.905 90.5863V86.7065ZM235.118 88.6464V90.5863H237.058V88.6464H235.118ZM235.118 88.6228V86.6829H233.178V88.6228H235.118ZM205.215 175.659C204.144 175.659 203.275 176.528 203.275 177.599C203.275 178.67 204.144 179.539 205.215 179.539V175.659ZM193.905 90.5863H235.118V86.7065H193.905V90.5863ZM237.058 88.6464V88.6228H233.178V88.6464H237.058ZM235.118 90.5627H341.412V86.6829H235.118V90.5627ZM205.215 179.539H341.412V175.659H205.215V179.539Z" fill="white"/>
<path d="M256.046 58.1589V56.2187H254.106V58.1589H256.046ZM296.521 58.1589L277.119 46.957V69.3608L296.521 58.1589ZM257.986 88.6228V58.1589H254.106V88.6228H257.986ZM256.046 60.0992H279.059V56.2187H256.046V60.0992Z" fill="white"/>
<path d="M256.046 147.135V145.195H254.106V147.135H256.046ZM296.521 147.135L277.119 135.933V158.337L296.521 147.135ZM257.986 177.599V147.135H254.106V177.599H257.986ZM256.046 149.075H279.059V145.195H256.046V149.075Z" fill="white"/>
<circle cx="119.85" cy="132.315" r="5.00294" fill="white"/>
<circle cx="192.958" cy="89.0967" r="5.00294" fill="white"/>
<rect x="282.629" y="75.8979" width="46.4723" height="25.4502" fill="#E6398A"/>
<rect x="282.629" y="164.874" width="46.4723" height="25.4502" fill="#00890E"/>
<rect x="2.3108" y="2.76426" width="396.345" height="243.559" rx="33.407" stroke="white" stroke-width="3.6711"/>
<path d="M47.917 143.427H42.2511L36.8094 134.576L31.3676 143.427H26.0539L33.8164 131.359L26.55 120.028H32.0238L37.0654 128.446L42.011 120.028H47.3568L40.0104 131.631L47.917 143.427Z" fill="white"/>
<path d="M353.432 164.278H360.715C363.83 164.278 366.188 164.715 367.789 165.59C369.389 166.465 370.19 168.002 370.19 170.2C370.19 171.085 370.046 171.885 369.758 172.6C369.48 173.315 369.075 173.902 368.541 174.361C368.008 174.82 367.357 175.118 366.589 175.257V175.417C367.367 175.577 368.072 175.855 368.701 176.25C369.331 176.634 369.832 177.199 370.206 177.946C370.59 178.682 370.782 179.664 370.782 180.891C370.782 182.31 370.435 183.527 369.742 184.54C369.048 185.554 368.056 186.333 366.765 186.877C365.484 187.41 363.958 187.677 362.187 187.677H353.432V164.278ZM358.394 173.545H361.275C362.715 173.545 363.713 173.321 364.268 172.872C364.823 172.414 365.1 171.741 365.1 170.856C365.1 169.959 364.769 169.319 364.108 168.935C363.457 168.54 362.422 168.343 361.003 168.343H358.394V173.545ZM358.394 177.482V183.58H361.627C363.121 183.58 364.161 183.292 364.748 182.716C365.335 182.139 365.628 181.366 365.628 180.395C365.628 179.819 365.5 179.312 365.244 178.874C364.988 178.437 364.556 178.095 363.948 177.85C363.35 177.605 362.523 177.482 361.467 177.482H358.394Z" fill="white"/>
<path d="M367.757 101.498L366.06 95.9282H357.53L355.833 101.498H350.487L358.746 78.0024H364.812L373.103 101.498H367.757ZM364.876 91.7669L363.179 86.3251C363.073 85.9623 362.929 85.4982 362.747 84.9327C362.577 84.3565 362.401 83.775 362.219 83.1881C362.048 82.5906 361.91 82.0731 361.803 81.6356C361.696 82.0731 361.547 82.6172 361.355 83.2681C361.173 83.9083 360.997 84.5165 360.827 85.0927C360.656 85.6689 360.533 86.0797 360.459 86.3251L358.778 91.7669H364.876Z" fill="white"/>
<circle cx="197.961" cy="177.599" r="6.24666" stroke="white" stroke-width="3.95088"/>
<path d="M658.791 83.4741L668.148 88.7812V99.3953L658.791 104.702L649.434 99.3953V88.7812L658.791 83.4741Z" fill="#E6398A"/>
<path d="M678.325 65.6831L687.682 70.9902V81.6043L678.325 86.9114L668.967 81.6043V70.9902L678.325 65.6831Z" fill="#E6398A"/>
<path d="M699.933 46.5559L709.291 51.863V62.4771L699.933 67.7842L690.576 62.4771V51.863L699.933 46.5559Z" fill="#E6398A"/>
<path d="M685.024 92.8975L694.382 98.2045V108.819L685.024 114.126L675.667 108.819V98.2045L685.024 92.8975Z" fill="#E6398A"/>
<path d="M706.636 74.8696L715.993 80.1767V90.7908L706.636 96.0979L697.278 90.7908V80.1767L706.636 74.8696Z" fill="#E6398A"/>
<rect x="460.196" y="54.6587" width="171.781" height="159.228" rx="58.6707" fill="#001129" stroke="#0069B4" stroke-width="12.0556"/>
<path d="M485.473 2.65576C485.473 2.65576 485.473 29.864 508.199 29.864C529.505 29.864 529.505 2.65576 529.505 2.65576" stroke="#04762B" stroke-width="10.7767" stroke-miterlimit="10"/>
<path d="M506.778 29.8645V73.1185" stroke="#04762B" stroke-width="11.4217" stroke-miterlimit="10"/>
<path d="M556.18 2.65576C556.18 2.65576 556.18 29.864 578.906 29.864C600.211 29.864 600.211 2.65576 600.211 2.65576" stroke="#C6C6C6" stroke-width="10.7767" stroke-miterlimit="10"/>
<path d="M577.486 29.8645V73.1185" stroke="#C6C6C6" stroke-width="11.4217" stroke-miterlimit="10"/>
<path d="M495.688 180.763H591.169" stroke="white" stroke-width="3.60566"/>
<path d="M515.308 153.533V151.73H513.505V153.533H515.308ZM552.917 153.533L534.888 143.124V163.941L552.917 153.533ZM517.111 181.839V153.533H513.505V181.839H517.111ZM515.308 155.336H536.691V151.73H515.308V155.336Z" fill="white"/>
<rect x="535.014" y="168.412" width="43.1813" height="23.6479" fill="#E6398A"/>
<path d="M521.704 137.685L526.906 117.689L506.776 123.072L521.704 137.685ZM506.602 90.6151L515.584 122.577L519.071 121.645L510.089 89.6827L506.602 90.6151Z" fill="white"/>
<path d="M657.871 112.614L636.984 114.333L649.022 131.271L657.871 112.614ZM583.369 165.845L645.532 123.25L643.447 120.317L581.284 162.911L583.369 165.845Z" fill="white"/>
</svg>
