<svg width="321" height="132" viewBox="0 0 321 132" fill="none" xmlns="http://www.w3.org/2000/svg">
<path d="M36.4246 40.7511C35.9223 38.3652 34.8078 36.5757 33.0811 35.3827C31.3858 34.1897 29.3609 33.5933 27.0064 33.5933C24.9971 33.5933 23.2705 33.97 21.8263 34.7234C20.4136 35.4769 19.2363 36.4972 18.2945 37.7844C17.3841 39.0401 16.7091 40.4843 16.2696 42.1168C15.8301 43.7493 15.6103 45.4445 15.6103 47.2026C15.6103 49.1176 15.8301 50.9385 16.2696 52.6652C16.7091 54.3605 17.3841 55.8517 18.2945 57.1388C19.2363 58.3946 20.4293 59.3992 21.8734 60.1527C23.3176 60.9061 25.0442 61.2829 27.0535 61.2829C28.529 61.2829 29.8318 61.0474 30.962 60.5765C32.1236 60.0742 33.1125 59.3992 33.9288 58.5516C34.7764 57.6725 35.4357 56.6365 35.9066 55.4436C36.3775 54.2506 36.6601 52.9634 36.7542 51.5821H41.2279C40.7884 55.8203 39.3286 59.1167 36.8484 61.4712C34.3683 63.8258 30.9777 65.0031 26.6767 65.0031C24.071 65.0031 21.7949 64.5635 19.8485 63.6845C17.9021 62.7741 16.2853 61.534 14.9981 59.9643C13.711 58.3946 12.7377 56.5423 12.0785 54.4076C11.4506 52.2728 11.1366 49.981 11.1366 47.5322C11.1366 45.0835 11.482 42.7917 12.1727 40.6569C12.8633 38.4907 13.8679 36.6071 15.1865 35.006C16.5364 33.4049 18.2003 32.1491 20.1781 31.2387C22.1874 30.2969 24.4791 29.826 27.0535 29.826C28.8115 29.826 30.4754 30.0614 32.0451 30.5323C33.6148 31.0032 35.0119 31.6939 36.2362 32.6043C37.4606 33.5148 38.4809 34.6607 39.2972 36.042C40.1134 37.3919 40.6471 38.9616 40.8983 40.7511H36.4246ZM45.7807 30.6265H61.6033C64.8055 30.6265 67.3013 31.4114 69.0908 32.9811C70.9116 34.5508 71.8221 36.7013 71.8221 39.4326C71.8221 41.4732 71.3512 43.2626 70.4093 44.801C69.4989 46.3393 68.0234 47.391 65.9828 47.9561V48.0502C66.956 48.2386 67.7408 48.5525 68.3373 48.9921C68.9652 49.4316 69.4518 49.9653 69.7971 50.5932C70.1739 51.1897 70.4407 51.8646 70.5977 52.6181C70.7861 53.3715 70.9273 54.1564 71.0215 54.9726C71.0843 55.7889 71.1314 56.6208 71.1628 57.4685C71.1942 58.3161 71.2727 59.1481 71.3982 59.9643C71.5238 60.7806 71.6965 61.5654 71.9162 62.3189C72.1674 63.0409 72.5284 63.6845 72.9993 64.2496H68.0077C67.6937 63.9043 67.474 63.4334 67.3484 62.8369C67.2542 62.2404 67.1914 61.5811 67.16 60.859C67.1286 60.1056 67.0973 59.305 67.0659 58.4574C67.0345 57.6097 66.9403 56.7778 66.7833 55.9616C66.6577 55.1453 66.5008 54.3762 66.3124 53.6541C66.124 52.9006 65.8258 52.2571 65.4177 51.7234C65.0095 51.1583 64.4758 50.7187 63.8166 50.4048C63.1573 50.0595 62.2783 49.8868 61.1795 49.8868H50.2543V64.2496H45.7807V30.6265ZM59.5784 46.1195C60.6144 46.1195 61.6033 46.041 62.5451 45.8841C63.4869 45.7271 64.3032 45.4288 64.9938 44.9893C65.7159 44.5184 66.281 43.9062 66.6891 43.1528C67.1286 42.3679 67.3484 41.3633 67.3484 40.1389C67.3484 38.4436 66.8775 37.0623 65.9357 35.9949C64.9938 34.9275 63.4712 34.3938 61.3678 34.3938H50.2543V46.1195H59.5784ZM77.2173 30.6265H81.691V64.2496H77.2173V30.6265ZM107.675 40.4686C107.424 38.0512 106.545 36.3088 105.038 35.2414C103.563 34.1427 101.663 33.5933 99.3402 33.5933C98.3984 33.5933 97.4723 33.6874 96.5619 33.8758C95.6514 34.0642 94.8352 34.3781 94.1131 34.8176C93.4224 35.2571 92.8573 35.8536 92.4178 36.6071C92.0097 37.3292 91.8056 38.2396 91.8056 39.3384C91.8056 40.3744 92.1039 41.222 92.7004 41.8813C93.3283 42.5092 94.1445 43.0272 95.1491 43.4353C96.1851 43.8434 97.3467 44.1888 98.6339 44.4713C99.921 44.7225 101.224 45.005 102.542 45.319C103.892 45.6329 105.211 46.0096 106.498 46.4491C107.785 46.8573 108.931 47.4224 109.936 48.1444C110.972 48.8665 111.788 49.7769 112.384 50.8757C113.012 51.9745 113.326 53.3558 113.326 55.0197C113.326 56.8092 112.918 58.3475 112.102 59.6347C111.317 60.8904 110.297 61.9264 109.041 62.7427C107.785 63.5275 106.373 64.0926 104.803 64.438C103.264 64.8147 101.726 65.0031 100.188 65.0031C98.3042 65.0031 96.5148 64.7676 94.8195 64.2967C93.1556 63.8258 91.6801 63.1194 90.3929 62.1776C89.1371 61.2044 88.1325 59.98 87.3791 58.5045C86.657 56.9976 86.296 55.2238 86.296 53.1832H90.5342C90.5342 54.5959 90.801 55.8203 91.3347 56.8563C91.8998 57.8609 92.6219 58.6928 93.5009 59.3521C94.4114 60.0114 95.4631 60.498 96.656 60.8119C97.849 61.1259 99.0734 61.2829 100.329 61.2829C101.334 61.2829 102.338 61.1887 103.343 61.0003C104.379 60.8119 105.305 60.498 106.121 60.0585C106.938 59.5876 107.597 58.9597 108.099 58.1748C108.601 57.39 108.853 56.3854 108.853 55.161C108.853 53.9994 108.539 53.0576 107.911 52.3355C107.314 51.6135 106.498 51.0327 105.462 50.5932C104.457 50.1223 103.312 49.7455 102.024 49.463C100.737 49.1804 99.4187 48.8979 98.0688 48.6153C96.7502 48.3014 95.4474 47.9561 94.1602 47.5793C92.873 47.1712 91.7115 46.6532 90.6755 46.0253C89.6708 45.366 88.8546 44.5341 88.2267 43.5295C87.6302 42.4935 87.332 41.2063 87.332 39.668C87.332 37.9727 87.6773 36.5129 88.368 35.2885C89.0587 34.0328 89.9691 33.0125 91.0993 32.2276C92.2609 31.4114 93.5637 30.8149 95.0078 30.4381C96.4834 30.03 97.9903 29.826 99.5286 29.826C101.255 29.826 102.856 30.03 104.332 30.4381C105.807 30.8463 107.095 31.4899 108.193 32.3689C109.324 33.2479 110.203 34.3624 110.83 35.7124C111.49 37.0309 111.851 38.6163 111.914 40.4686H107.675ZM122.247 46.7317H131.006C133.549 46.7631 135.401 46.2451 136.563 45.1777C137.756 44.1103 138.352 42.572 138.352 40.5627C138.352 38.5535 137.756 37.0309 136.563 35.9949C135.401 34.9275 133.549 34.3938 131.006 34.3938H122.247V46.7317ZM117.773 30.6265H132.513C135.904 30.6265 138.462 31.5055 140.189 33.2636C141.947 34.9903 142.826 37.4233 142.826 40.5627C142.826 43.7022 141.947 46.1509 140.189 47.909C138.462 49.667 135.904 50.5304 132.513 50.499H122.247V64.2496H117.773V30.6265ZM147.32 30.6265H163.143C166.345 30.6265 168.841 31.4114 170.63 32.9811C172.451 34.5508 173.362 36.7013 173.362 39.4326C173.362 41.4732 172.891 43.2626 171.949 44.801C171.038 46.3393 169.563 47.391 167.522 47.9561V48.0502C168.496 48.2386 169.28 48.5525 169.877 48.9921C170.505 49.4316 170.991 49.9653 171.337 50.5932C171.713 51.1897 171.98 51.8646 172.137 52.6181C172.326 53.3715 172.467 54.1564 172.561 54.9726C172.624 55.7889 172.671 56.6208 172.702 57.4685C172.734 58.3161 172.812 59.1481 172.938 59.9643C173.063 60.7806 173.236 61.5654 173.456 62.3189C173.707 63.0409 174.068 63.6845 174.539 64.2496H169.547C169.233 63.9043 169.014 63.4334 168.888 62.8369C168.794 62.2404 168.731 61.5811 168.7 60.859C168.668 60.1056 168.637 59.305 168.605 58.4574C168.574 57.6097 168.48 56.7778 168.323 55.9616C168.197 55.1453 168.04 54.3762 167.852 53.6541C167.664 52.9006 167.365 52.2571 166.957 51.7234C166.549 51.1583 166.015 50.7187 165.356 50.4048C164.697 50.0595 163.818 49.8868 162.719 49.8868H151.794V64.2496H147.32V30.6265ZM161.118 46.1195C162.154 46.1195 163.143 46.041 164.085 45.8841C165.027 45.7271 165.843 45.4288 166.533 44.9893C167.255 44.5184 167.821 43.9062 168.229 43.1528C168.668 42.3679 168.888 41.3633 168.888 40.1389C168.888 38.4436 168.417 37.0623 167.475 35.9949C166.533 34.9275 165.011 34.3938 162.907 34.3938H151.794V46.1195H161.118ZM214.326 40.7511C213.823 38.3652 212.709 36.5757 210.982 35.3827C209.287 34.1897 207.262 33.5933 204.908 33.5933C202.898 33.5933 201.172 33.97 199.728 34.7234C198.315 35.4769 197.138 36.4972 196.196 37.7844C195.285 39.0401 194.61 40.4843 194.171 42.1168C193.731 43.7493 193.512 45.4445 193.512 47.2026C193.512 49.1176 193.731 50.9385 194.171 52.6652C194.61 54.3605 195.285 55.8517 196.196 57.1388C197.138 58.3946 198.331 59.3992 199.775 60.1527C201.219 60.9061 202.945 61.2829 204.955 61.2829C206.43 61.2829 207.733 61.0474 208.863 60.5765C210.025 60.0742 211.014 59.3992 211.83 58.5516C212.678 57.6725 213.337 56.6365 213.808 55.4436C214.279 54.2506 214.561 52.9634 214.655 51.5821H219.129C218.69 55.8203 217.23 59.1167 214.75 61.4712C212.269 63.8258 208.879 65.0031 204.578 65.0031C201.972 65.0031 199.696 64.5635 197.75 63.6845C195.803 62.7741 194.186 61.534 192.899 59.9643C191.612 58.3946 190.639 56.5423 189.98 54.4076C189.352 52.2728 189.038 49.981 189.038 47.5322C189.038 45.0835 189.383 42.7917 190.074 40.6569C190.765 38.4907 191.769 36.6071 193.088 35.006C194.438 33.4049 196.102 32.1491 198.079 31.2387C200.089 30.2969 202.38 29.826 204.955 29.826C206.713 29.826 208.377 30.0614 209.946 30.5323C211.516 31.0032 212.913 31.6939 214.137 32.6043C215.362 33.5148 216.382 34.6607 217.198 36.042C218.015 37.3919 218.548 38.9616 218.799 40.7511H214.326ZM243.178 64.2496H239.41V60.3881H239.316C238.468 61.895 237.385 63.0095 236.067 63.7316C234.748 64.4223 233.194 64.7676 231.405 64.7676C229.804 64.7676 228.469 64.5635 227.402 64.1554C226.335 63.7159 225.471 63.1037 224.812 62.3189C224.153 61.534 223.682 60.6079 223.399 59.5405C223.148 58.4417 223.023 57.233 223.023 55.9145V39.9035H227.025V56.3854C227.025 57.8923 227.465 59.0853 228.344 59.9643C229.223 60.8433 230.432 61.2829 231.97 61.2829C233.194 61.2829 234.246 61.0945 235.125 60.7178C236.035 60.341 236.789 59.8073 237.385 59.1167C237.982 58.426 238.421 57.6254 238.704 56.715C239.018 55.7732 239.175 54.7529 239.175 53.6541V39.9035H243.178V64.2496ZM248.059 39.9035H251.827V45.0364H251.921C252.894 43.0586 254.087 41.5988 255.5 40.6569C256.912 39.7151 258.702 39.2756 260.868 39.3384V43.5766C259.267 43.5766 257.901 43.7963 256.771 44.2359C255.641 44.6754 254.731 45.319 254.04 46.1666C253.349 47.0142 252.847 48.0502 252.533 49.2746C252.219 50.4676 252.062 51.8489 252.062 53.4186V64.2496H248.059V39.9035ZM278.971 49.7455C278.909 48.8037 278.689 47.909 278.312 47.0613C277.967 46.2137 277.48 45.4916 276.852 44.8951C276.256 44.2673 275.534 43.7806 274.686 43.4353C273.87 43.0586 272.959 42.8702 271.955 42.8702C270.919 42.8702 269.977 43.0586 269.129 43.4353C268.313 43.7806 267.607 44.2673 267.01 44.8951C266.414 45.523 265.943 46.2608 265.597 47.1084C265.252 47.9247 265.048 48.8037 264.985 49.7455H278.971ZM282.833 56.5267C282.299 59.2579 281.122 61.3143 279.301 62.6956C277.48 64.0769 275.188 64.7676 272.426 64.7676C270.479 64.7676 268.784 64.4537 267.34 63.8258C265.927 63.1979 264.734 62.3189 263.761 61.1887C262.788 60.0585 262.05 58.7085 261.548 57.1388C261.077 55.5691 260.81 53.8582 260.747 52.0059C260.747 50.1536 261.03 48.4584 261.595 46.9201C262.16 45.3817 262.945 44.0475 263.949 42.9173C264.985 41.7871 266.194 40.9081 267.575 40.2802C268.988 39.6523 270.526 39.3384 272.19 39.3384C274.356 39.3384 276.146 39.7936 277.559 40.704C279.003 41.5831 280.149 42.7132 280.996 44.0946C281.875 45.4759 282.472 46.9828 282.786 48.6153C283.131 50.2478 283.272 51.8018 283.209 53.2774H264.985C264.954 54.3448 265.079 55.3651 265.362 56.3383C265.644 57.2801 266.1 58.1278 266.728 58.8812C267.355 59.6033 268.156 60.1841 269.129 60.6236C270.102 61.0631 271.248 61.2829 272.567 61.2829C274.262 61.2829 275.644 60.8904 276.711 60.1056C277.81 59.3207 278.532 58.1278 278.877 56.5267H282.833ZM288.819 56.5737C288.85 57.4528 289.054 58.2062 289.431 58.8341C289.807 59.4306 290.294 59.9172 290.891 60.2939C291.518 60.6393 292.209 60.8904 292.963 61.0474C293.747 61.2044 294.548 61.2829 295.364 61.2829C295.992 61.2829 296.651 61.2358 297.342 61.1416C298.033 61.0474 298.661 60.8747 299.226 60.6236C299.822 60.3724 300.309 60.0114 300.685 59.5405C301.062 59.0382 301.251 58.4103 301.251 57.6568C301.251 56.6208 300.858 55.836 300.073 55.3023C299.288 54.7686 298.3 54.3448 297.107 54.0308C295.945 53.6855 294.674 53.3872 293.292 53.1361C291.911 52.8535 290.624 52.4768 289.431 52.0059C288.269 51.5036 287.296 50.8129 286.511 49.9339C285.726 49.0549 285.334 47.8305 285.334 46.2608C285.334 45.0364 285.601 43.9847 286.134 43.1057C286.699 42.2266 287.406 41.5203 288.253 40.9866C289.132 40.4215 290.106 40.0134 291.173 39.7622C292.272 39.4797 293.355 39.3384 294.422 39.3384C295.804 39.3384 297.075 39.464 298.237 39.7151C299.398 39.9349 300.419 40.343 301.298 40.9395C302.208 41.5046 302.93 42.2894 303.464 43.294C303.998 44.2673 304.311 45.4916 304.406 46.9671H300.403C300.34 46.1823 300.136 45.5387 299.791 45.0364C299.445 44.5027 299.006 44.0789 298.472 43.7649C297.938 43.451 297.342 43.2312 296.683 43.1057C296.055 42.9487 295.411 42.8702 294.752 42.8702C294.155 42.8702 293.543 42.9173 292.915 43.0115C292.319 43.1057 291.77 43.2783 291.267 43.5295C290.765 43.7493 290.357 44.0632 290.043 44.4713C289.729 44.848 289.572 45.3504 289.572 45.9782C289.572 46.6689 289.807 47.2497 290.278 47.7206C290.781 48.1601 291.409 48.5369 292.162 48.8508C292.915 49.1333 293.763 49.3845 294.705 49.6043C295.647 49.7926 296.589 49.9967 297.53 50.2164C298.535 50.4362 299.508 50.703 300.45 51.017C301.423 51.3309 302.271 51.7547 302.993 52.2884C303.746 52.7908 304.343 53.4343 304.782 54.2192C305.253 55.004 305.489 55.9773 305.489 57.1388C305.489 58.6144 305.175 59.8387 304.547 60.8119C303.95 61.7852 303.15 62.57 302.145 63.1665C301.172 63.763 300.058 64.1711 298.802 64.3909C297.577 64.642 296.353 64.7676 295.129 64.7676C293.779 64.7676 292.492 64.6263 291.267 64.3438C290.043 64.0612 288.96 63.606 288.018 62.9781C287.076 62.3189 286.323 61.4712 285.758 60.4352C285.192 59.3678 284.879 58.0807 284.816 56.5737H288.819Z" fill="white"/>
<path d="M15.7705 88.5563H11.6735V85.0244H15.7705V81.3984C15.7705 79.4206 16.3355 77.9293 17.4657 76.9247C18.6273 75.8887 20.3069 75.3707 22.5045 75.3707C22.8812 75.3707 23.305 75.4021 23.776 75.4649C24.2783 75.5277 24.7178 75.6219 25.0945 75.7475V79.2322C24.7492 79.1066 24.3724 79.0281 23.9643 78.9967C23.5562 78.934 23.1795 78.9026 22.8341 78.9026C21.8609 78.9026 21.1075 79.0909 20.5738 79.4677C20.0401 79.8444 19.7732 80.5665 19.7732 81.6338V85.0244H24.4823V88.5563H19.7732V109.371H15.7705V88.5563ZM29.9872 97.221C29.9872 98.6965 30.1756 100.015 30.5523 101.177C30.9604 102.307 31.5098 103.264 32.2005 104.049C32.8912 104.803 33.6917 105.383 34.6021 105.792C35.544 106.2 36.5329 106.404 37.5689 106.404C38.6049 106.404 39.5781 106.2 40.4885 105.792C41.4304 105.383 42.2466 104.803 42.9373 104.049C43.6279 103.264 44.1616 102.307 44.5384 101.177C44.9465 100.015 45.1506 98.6965 45.1506 97.221C45.1506 95.7455 44.9465 94.4426 44.5384 93.3125C44.1616 92.1509 43.6279 91.1777 42.9373 90.3928C42.2466 89.608 41.4304 89.0115 40.4885 88.6033C39.5781 88.1952 38.6049 87.9912 37.5689 87.9912C36.5329 87.9912 35.544 88.1952 34.6021 88.6033C33.6917 89.0115 32.8912 89.608 32.2005 90.3928C31.5098 91.1777 30.9604 92.1509 30.5523 93.3125C30.1756 94.4426 29.9872 95.7455 29.9872 97.221ZM25.749 97.221C25.749 95.4316 26.0001 93.7677 26.5025 92.2294C27.0048 90.6597 27.7582 89.3097 28.7628 88.1795C29.7674 87.0179 31.0075 86.1075 32.483 85.4482C33.9586 84.789 35.6538 84.4593 37.5689 84.4593C39.5153 84.4593 41.2106 84.789 42.6547 85.4482C44.1302 86.1075 45.3703 87.0179 46.3749 88.1795C47.3795 89.3097 48.133 90.6597 48.6353 92.2294C49.1376 93.7677 49.3888 95.4316 49.3888 97.221C49.3888 99.0105 49.1376 100.674 48.6353 102.213C48.133 103.751 47.3795 105.101 46.3749 106.263C45.3703 107.393 44.1302 108.287 42.6547 108.947C41.2106 109.575 39.5153 109.889 37.5689 109.889C35.6538 109.889 33.9586 109.575 32.483 108.947C31.0075 108.287 29.7674 107.393 28.7628 106.263C27.7582 105.101 27.0048 103.751 26.5025 102.213C26.0001 100.674 25.749 99.0105 25.749 97.221ZM52.978 85.0244H56.7453V90.1574H56.8395C57.8127 88.1795 59.0057 86.7197 60.4184 85.7779C61.8311 84.836 63.6206 84.3965 65.7868 84.4593V88.6975C64.1857 88.6975 62.82 88.9173 61.6899 89.3568C60.5597 89.7963 59.6492 90.4399 58.9586 91.2875C58.2679 92.1352 57.7656 93.1712 57.4516 94.3956C57.1377 95.5885 56.9807 96.9699 56.9807 98.5396V109.371H52.978V85.0244ZM104.229 85.8721C103.726 83.4861 102.612 81.6966 100.885 80.5037C99.1899 79.3107 97.1649 78.7142 94.8104 78.7142C92.8012 78.7142 91.0745 79.0909 89.6304 79.8444C88.2176 80.5978 87.0403 81.6182 86.0985 82.9053C85.1881 84.1611 84.5131 85.6052 84.0736 87.2377C83.6341 88.8702 83.4143 90.5655 83.4143 92.3235C83.4143 94.2386 83.6341 96.0594 84.0736 97.7861C84.5131 99.4814 85.1881 100.973 86.0985 102.26C87.0403 103.516 88.2333 104.52 89.6775 105.274C91.1216 106.027 92.8483 106.404 94.8575 106.404C96.333 106.404 97.6359 106.168 98.766 105.697C99.9276 105.195 100.917 104.52 101.733 103.673C102.58 102.793 103.24 101.757 103.711 100.564C104.182 99.3715 104.464 98.0844 104.558 96.703H109.032C108.592 100.941 107.133 104.238 104.652 106.592C102.172 108.947 98.7817 110.124 94.4808 110.124C91.875 110.124 89.599 109.684 87.6525 108.805C85.7061 107.895 84.0893 106.655 82.8021 105.085C81.515 103.516 80.5418 101.663 79.8825 99.5285C79.2546 97.3937 78.9407 95.1019 78.9407 92.6532C78.9407 90.2044 79.286 87.9127 79.9767 85.7779C80.6673 83.6117 81.672 81.728 82.9905 80.1269C84.3405 78.5258 86.0043 77.2701 87.9822 76.3596C89.9914 75.4178 92.2832 74.9469 94.8575 74.9469C96.6156 74.9469 98.2794 75.1824 99.8491 75.6533C101.419 76.1242 102.816 76.8149 104.04 77.7253C105.265 78.6357 106.285 79.7816 107.101 81.1629C107.917 82.5129 108.451 84.0826 108.702 85.8721H104.229ZM134.493 109.276C133.802 109.684 132.845 109.889 131.621 109.889C130.585 109.889 129.753 109.606 129.125 109.041C128.528 108.444 128.23 107.487 128.23 106.168C127.131 107.487 125.844 108.444 124.369 109.041C122.924 109.606 121.355 109.889 119.659 109.889C118.561 109.889 117.509 109.763 116.504 109.512C115.531 109.261 114.683 108.868 113.961 108.335C113.239 107.801 112.659 107.11 112.219 106.263C111.811 105.383 111.607 104.332 111.607 103.107C111.607 101.726 111.842 100.596 112.313 99.7169C112.784 98.8378 113.396 98.1315 114.15 97.5978C114.935 97.0327 115.814 96.6088 116.787 96.3263C117.791 96.0437 118.812 95.8083 119.848 95.6199C120.947 95.4002 121.983 95.2432 122.956 95.149C123.96 95.0234 124.839 94.8665 125.593 94.6781C126.346 94.4583 126.943 94.1601 127.382 93.7834C127.822 93.3752 128.042 92.7945 128.042 92.041C128.042 91.162 127.869 90.4556 127.524 89.9219C127.21 89.3882 126.786 88.9801 126.252 88.6975C125.75 88.415 125.169 88.2266 124.51 88.1324C123.882 88.0382 123.254 87.9912 122.626 87.9912C120.931 87.9912 119.518 88.3208 118.388 88.9801C117.258 89.608 116.646 90.8166 116.551 92.6061H112.549C112.611 91.0992 112.925 89.8277 113.49 88.7917C114.056 87.7557 114.809 86.9238 115.751 86.2959C116.693 85.6366 117.76 85.1657 118.953 84.8831C120.177 84.6006 121.48 84.4593 122.862 84.4593C123.96 84.4593 125.044 84.5378 126.111 84.6948C127.21 84.8517 128.199 85.1814 129.078 85.6837C129.957 86.1546 130.663 86.8296 131.197 87.7086C131.73 88.5876 131.997 89.7335 131.997 91.1463V103.673C131.997 104.614 132.044 105.305 132.139 105.745C132.264 106.184 132.641 106.404 133.269 106.404C133.614 106.404 134.022 106.325 134.493 106.168V109.276ZM127.995 96.7972C127.492 97.1739 126.833 97.4565 126.017 97.6448C125.2 97.8018 124.337 97.9431 123.427 98.0687C122.548 98.1628 121.653 98.2884 120.743 98.4454C119.832 98.571 119.016 98.7907 118.294 99.1047C117.572 99.4186 116.975 99.8738 116.504 100.47C116.065 101.035 115.845 101.82 115.845 102.825C115.845 103.484 115.971 104.049 116.222 104.52C116.504 104.96 116.85 105.321 117.258 105.603C117.697 105.886 118.2 106.09 118.765 106.215C119.33 106.341 119.926 106.404 120.554 106.404C121.873 106.404 123.003 106.231 123.945 105.886C124.887 105.509 125.656 105.054 126.252 104.52C126.849 103.955 127.288 103.359 127.571 102.731C127.853 102.071 127.995 101.459 127.995 100.894V96.7972ZM137.23 85.0244H140.997V88.8859H141.091C142.755 85.9348 145.392 84.4593 149.002 84.4593C150.603 84.4593 151.938 84.6791 153.005 85.1186C154.073 85.5581 154.936 86.1703 155.595 86.9552C156.254 87.74 156.71 88.6818 156.961 89.7806C157.243 90.848 157.385 92.041 157.385 93.3595V109.371H153.382V92.8886C153.382 91.3817 152.942 90.1887 152.063 89.3097C151.184 88.4307 149.976 87.9912 148.437 87.9912C147.213 87.9912 146.146 88.1795 145.235 88.5563C144.356 88.933 143.618 89.4667 143.022 90.1574C142.425 90.848 141.97 91.6643 141.656 92.6061C141.374 93.5165 141.232 94.5211 141.232 95.6199V109.371H137.23V85.0244ZM178.937 92.8415C178.623 91.3032 177.963 90.1103 176.959 89.2626C175.954 88.415 174.604 87.9912 172.909 87.9912C171.465 87.9912 170.256 88.258 169.283 88.7917C168.31 89.3254 167.525 90.0318 166.928 90.9108C166.363 91.7898 165.955 92.8102 165.704 93.9717C165.453 95.1019 165.327 96.2792 165.327 97.5036C165.327 98.6338 165.453 99.7326 165.704 100.8C165.986 101.867 166.41 102.825 166.975 103.673C167.54 104.489 168.278 105.148 169.189 105.65C170.099 106.153 171.182 106.404 172.438 106.404C174.416 106.404 175.954 105.886 177.053 104.85C178.183 103.814 178.874 102.354 179.125 100.47H183.222C182.782 103.484 181.652 105.807 179.831 107.44C178.042 109.072 175.593 109.889 172.485 109.889C170.633 109.889 168.985 109.59 167.54 108.994C166.128 108.397 164.935 107.55 163.962 106.451C163.02 105.352 162.298 104.049 161.795 102.542C161.324 101.004 161.089 99.3244 161.089 97.5036C161.089 95.6827 161.324 93.9874 161.795 92.4177C162.266 90.8166 162.973 89.4353 163.914 88.2737C164.888 87.0807 166.096 86.1546 167.54 85.4953C168.985 84.8047 170.664 84.4593 172.579 84.4593C173.961 84.4593 175.248 84.632 176.441 84.9773C177.665 85.2913 178.732 85.7936 179.643 86.4842C180.585 87.1749 181.354 88.0539 181.95 89.1213C182.547 90.1574 182.924 91.3974 183.081 92.8415H178.937ZM203.617 94.8665C203.555 93.9246 203.335 93.0299 202.958 92.1823C202.613 91.3346 202.126 90.6126 201.498 90.0161C200.902 89.3882 200.18 88.9016 199.332 88.5563C198.516 88.1795 197.605 87.9912 196.601 87.9912C195.565 87.9912 194.623 88.1795 193.775 88.5563C192.959 88.9016 192.253 89.3882 191.656 90.0161C191.06 90.644 190.589 91.3817 190.244 92.2294C189.898 93.0456 189.694 93.9246 189.631 94.8665H203.617ZM207.479 101.648C206.945 104.379 205.768 106.435 203.947 107.817C202.126 109.198 199.834 109.889 197.072 109.889C195.125 109.889 193.43 109.575 191.986 108.947C190.573 108.319 189.38 107.44 188.407 106.31C187.434 105.179 186.696 103.829 186.194 102.26C185.723 100.69 185.456 98.9791 185.393 97.1268C185.393 95.2746 185.676 93.5793 186.241 92.041C186.806 90.5027 187.591 89.1684 188.595 88.0382C189.631 86.9081 190.84 86.029 192.221 85.4011C193.634 84.7733 195.172 84.4593 196.836 84.4593C199.003 84.4593 200.792 84.9145 202.205 85.825C203.649 86.704 204.795 87.8342 205.642 89.2155C206.521 90.5969 207.118 92.1038 207.432 93.7363C207.777 95.3688 207.918 96.9228 207.856 98.3983H189.631C189.6 99.4657 189.726 100.486 190.008 101.459C190.291 102.401 190.746 103.249 191.374 104.002C192.002 104.724 192.802 105.305 193.775 105.745C194.749 106.184 195.895 106.404 197.213 106.404C198.908 106.404 200.29 106.011 201.357 105.227C202.456 104.442 203.178 103.249 203.523 101.648H207.479ZM210.875 85.0244H214.642V90.1574H214.736C215.709 88.1795 216.902 86.7197 218.315 85.7779C219.728 84.836 221.517 84.3965 223.683 84.4593V88.6975C222.082 88.6975 220.717 88.9173 219.587 89.3568C218.456 89.7963 217.546 90.4399 216.855 91.2875C216.165 92.1352 215.662 93.1712 215.348 94.3956C215.034 95.5885 214.877 96.9699 214.877 98.5396V109.371H210.875V85.0244Z" fill="white"/>
</svg>
