<svg width="347" height="132" viewBox="0 0 347 132" fill="none" xmlns="http://www.w3.org/2000/svg">
<path fill-rule="evenodd" clip-rule="evenodd" d="M40.8129 32.757C40.8455 30.205 42.2583 25.8408 49.5551 25.8408C56.5252 25.8408 58.3951 30.4039 58.4226 33.1871H53.864C53.7371 32.1817 53.3521 29.7732 49.206 29.7732C47.4037 29.7732 45.244 30.4378 45.244 32.4992C45.244 34.2665 46.7099 34.6517 47.6576 34.8781L53.1998 36.2369C55.8651 36.8895 58.3446 37.9183 58.9914 40.7849V27.1359H74.9285V31.0915H63.6748V36.152H73.5303V40.1141H63.6748V49.7821H58.9914V44.0663C57.9313 49.3026 52.0054 49.8014 50.1897 49.8014C41.8869 49.8014 40.4654 45.0203 40.4654 42.1927H45.024C45.0578 43.4562 45.6924 45.869 49.8385 45.869C52.0935 45.869 54.5917 45.3293 54.5917 42.925C54.5917 41.1513 52.8783 40.6751 50.4795 40.1037L48.0362 39.5365C46.109 39.0863 44.2183 38.6442 42.8548 37.6065C41.306 39.3947 39.0409 40.4555 35.8966 40.4555C31.0244 40.4555 27.2774 37.7614 26.0778 32.5405C25.8738 38.1166 22.3319 40.5128 16.8134 40.5128C14.7382 40.5128 11.654 40.0133 9.6402 37.7804C8.41541 36.4026 7.9585 34.5698 7.87811 32.3157V17.3269H12.6927V31.9771C12.6927 35.1349 14.5119 36.5169 16.7161 36.5169C19.9568 36.5169 21.2747 34.9444 21.2747 32.2057V17.3269H26.0871V24.8549C27.3295 19.5583 31.2218 16.8801 35.9622 16.8801C42.6742 16.8801 45.3798 21.4749 45.6336 24.7957H40.9502C40.5758 23.4454 39.8587 20.9204 35.9918 20.9204C33.7474 20.9204 30.4411 22.4189 30.4411 28.7556C30.4411 32.7875 32.0276 36.4088 35.9918 36.4088C38.3943 36.4088 40.1346 35.1384 40.8129 32.757ZM83.3586 27.0806H86.3751V36.8397H98.3205V27.0806H101.337V49.7734H98.3205V39.3816H86.3751V49.7734H83.3586V27.0806ZM118.905 44.5631C118.173 48.1865 115.569 50.1569 111.884 50.1569C106.642 50.1569 104.165 46.5335 104.006 41.5111C104.006 36.584 107.245 32.9627 111.725 32.9627C117.538 32.9627 119.317 38.3957 119.158 42.3704H106.864C106.769 45.2298 108.389 47.7717 111.979 47.7717C114.202 47.7717 115.759 46.6923 116.235 44.5631H118.905ZM116.299 39.9852C116.172 37.4115 114.234 35.3459 111.566 35.3459C108.738 35.3459 107.054 37.475 106.864 39.9852H116.299ZM121.16 49.7739V27.081H123.859V49.7739H121.16ZM141.107 44.5631C140.378 48.1865 137.774 50.1569 134.089 50.1569C128.847 50.1569 126.368 46.5335 126.209 41.5111C126.209 36.584 129.45 32.9627 133.928 32.9627C139.743 32.9627 141.522 38.3957 141.361 42.3704H129.069C128.974 45.2298 130.594 47.7717 134.184 47.7717C136.407 47.7717 137.964 46.6923 138.44 44.5631H141.107ZM138.503 39.9852C138.376 37.4115 136.439 35.3459 133.769 35.3459C130.943 35.3459 129.259 37.475 129.069 39.9852H138.503ZM143.204 33.3433H145.747V35.9486H145.81C146.953 33.9147 148.795 32.9623 151.145 32.9623C155.467 32.9623 156.8 35.4407 156.8 38.9688V49.7734H154.1V38.6493C154.1 36.6492 152.829 35.3454 150.764 35.3454C147.494 35.3454 145.905 37.5381 145.905 40.4948V49.7734H143.204V33.3433ZM166.662 27.0806H174.444C181.433 27.0806 185.34 30.577 185.34 37.8873C185.34 45.4833 182.004 49.7734 174.444 49.7734H166.662V27.0806ZM169.678 47.2315H174.698C176.762 47.2315 182.322 46.6601 182.322 38.3C182.322 32.8967 180.32 29.6246 174.761 29.6246H169.678V47.2315ZM187.785 49.776V33.3437H190.486V49.776H187.785ZM187.785 30.387V27.081H190.486V30.387H187.785ZM193.884 49.7739V27.081H196.585V49.7739H193.884ZM199.982 49.7739V27.081H202.683V49.7739H199.982ZM219.932 44.5631C219.203 48.1865 216.596 50.1569 212.911 50.1569C207.672 50.1569 205.193 46.5335 205.034 41.5111C205.034 36.584 208.275 32.9627 212.753 32.9627C218.566 32.9627 220.345 38.3957 220.186 42.3704H207.892C207.797 45.2298 209.417 47.7717 213.007 47.7717C215.232 47.7717 216.787 46.6923 217.265 44.5631H219.932ZM217.326 39.9852C217.201 37.4115 215.264 35.3459 212.594 35.3459C209.766 35.3459 208.084 37.475 207.892 39.9852H217.326ZM221.933 33.3433H224.474V36.8079H224.537C225.84 34.1687 227.651 32.8649 230.574 32.9623V35.8216C226.221 35.8216 224.632 38.3 224.632 42.4653V49.7734H221.933V33.3433ZM238.399 27.0806H253.3V29.6246H241.418V36.8397H251.838V39.3816H241.418V49.7734H238.399V27.0806ZM268.516 49.7108C268.038 49.9986 267.435 50.1574 266.578 50.1574C265.18 50.1574 264.289 49.3933 264.289 47.6134C262.798 49.3616 260.797 50.1574 258.508 50.1574C255.523 50.1574 253.076 48.8219 253.076 45.5477C253.076 41.829 255.84 41.0354 258.635 40.4957C261.622 39.9221 264.162 40.1126 264.162 38.0787C264.162 35.7273 262.225 35.3463 260.511 35.3463C258.222 35.3463 256.541 36.0447 256.412 38.4617H253.712C253.871 34.3918 257.017 32.9631 260.668 32.9631C263.623 32.9631 266.832 33.6298 266.832 37.4755V45.9286C266.832 47.2006 266.832 47.7721 267.689 47.7721C267.911 47.7721 268.167 47.7403 268.516 47.6134V49.7108ZM264.131 41.2893C263.083 42.0513 261.051 42.083 259.24 42.4005C257.461 42.7201 255.936 43.355 255.936 45.3572C255.936 47.1372 257.461 47.7721 259.113 47.7721C262.671 47.7721 264.131 45.5477 264.131 44.0535V41.2893ZM270.073 33.3433H272.613V35.7582H272.677C273.883 33.9147 275.727 32.9623 277.982 32.9623C279.983 32.9623 281.826 33.756 282.492 35.7582C283.605 34.0099 285.542 32.9623 287.639 32.9623C290.911 32.9623 293.103 34.3274 293.103 37.7286V49.7734H290.403V39.0006C290.403 36.9667 289.862 35.3454 287.226 35.3454C284.62 35.3454 282.936 36.9984 282.936 39.5403V49.7734H280.237V39.0006C280.237 36.8714 279.571 35.3454 277.155 35.3454C273.948 35.3454 272.772 38.3 272.772 39.5403V49.7734H270.073V33.3433ZM296.375 49.776V33.3437H299.076V49.776H296.375ZM296.375 30.387V27.081H299.076V30.387H296.375ZM302.473 49.7739V27.081H305.175V49.7739H302.473ZM314.861 51.9689C313.623 55.1795 312.511 56.3542 310.097 56.3542C309.46 56.3542 308.826 56.2907 308.221 56.0685V53.5901C308.73 53.7488 309.27 53.971 309.811 53.971C310.922 53.971 311.527 53.4313 312.035 52.4768L313.145 49.6809L306.634 33.3439H309.682L314.48 46.7877H314.543L319.151 33.3439H322.009L314.861 51.9689ZM99.3044 66.3181C98.6698 63.1074 96.0954 61.4862 92.952 61.4862C87.5515 61.4862 85.2648 65.935 85.2648 70.6717C85.2648 75.8528 87.5515 80.1747 92.9837 80.1747C96.9542 80.1747 99.2409 77.3788 99.5265 73.6284H102.545C101.974 79.2857 98.4477 82.7165 92.7299 82.7165C85.6773 82.7165 82.2462 77.5058 82.2462 70.8939C82.2462 64.3159 85.9946 58.9443 92.9837 58.9443C97.7158 58.9443 101.625 61.4862 102.323 66.3181H99.3044ZM111.979 65.3644C117.189 65.3644 119.952 69.1466 119.952 73.9785C119.952 78.7765 117.189 82.5608 111.979 82.5608C106.769 82.5608 104.006 78.7765 104.006 73.9785C104.006 69.1466 106.769 65.3644 111.979 65.3644ZM111.979 80.1755C114.805 80.1755 117.092 77.9511 117.092 73.9785C117.092 69.9741 114.805 67.7476 111.979 67.7476C109.151 67.7476 106.864 69.9741 106.864 73.9785C106.864 77.9511 109.151 80.1755 111.979 80.1755ZM122.176 65.7445H124.718V68.1616H124.782C125.987 66.3181 127.83 65.3636 130.087 65.3636C132.088 65.3636 133.929 66.1594 134.597 68.1616C135.71 66.4134 137.647 65.3636 139.744 65.3636C143.016 65.3636 145.208 66.7308 145.208 70.132V82.1768H142.506V71.4019C142.506 69.368 141.967 67.7467 139.331 67.7467C136.725 67.7467 135.041 69.3997 135.041 71.9437V82.1768H132.342V71.4019C132.342 69.2727 131.674 67.7467 129.26 67.7467C126.051 67.7467 124.877 70.7034 124.877 71.9437V82.1768H122.176V65.7445ZM148.414 65.7452H151.115V67.9717H151.179C152.069 66.16 154.166 65.3642 156.421 65.3642C161.472 65.3642 163.981 69.3686 163.981 74.01C163.981 78.6493 161.502 82.5606 156.484 82.5606C154.8 82.5606 152.387 81.9235 151.179 79.9848H151.115V88.4719H148.414V65.7452ZM156.04 67.7474C152.418 67.7474 151.02 70.8628 151.02 73.9465C151.02 77.189 152.482 80.1753 156.199 80.1753C159.884 80.1753 161.121 77.0281 161.121 73.8195C161.121 70.7358 159.532 67.7474 156.04 67.7474ZM166.109 65.7445H168.65V69.2092H168.713C170.016 66.5721 171.827 65.2683 174.751 65.3636V68.2251C170.397 68.2251 168.809 70.7034 168.809 74.8665V82.1768H166.109V65.7445ZM189.266 76.9644C188.536 80.5899 185.93 82.5603 182.247 82.5603C177.005 82.5603 174.526 78.9348 174.367 73.9146C174.367 68.9874 177.608 65.364 182.086 65.364C187.901 65.364 189.678 70.7991 189.52 74.7717H177.227C177.132 77.6332 178.752 80.1751 182.342 80.1751C184.565 80.1751 186.12 79.0936 186.598 76.9644H189.266ZM186.662 72.3886C186.535 69.8128 184.597 67.7472 181.928 67.7472C179.102 67.7472 177.418 69.8784 177.227 72.3886H186.662ZM191.363 59.484H194.064V68.1616H194.127C195.016 66.1911 197.336 65.3636 199.306 65.3636C203.625 65.3636 204.96 67.8441 204.96 71.3701V82.1768H202.259V71.0527C202.259 69.0505 200.99 67.7467 198.923 67.7467C195.652 67.7467 194.064 69.9415 194.064 72.8961V82.1768H191.363V59.484ZM222.082 76.9644C221.35 80.5899 218.746 82.5603 215.061 82.5603C209.819 82.5603 207.342 78.9348 207.183 73.9146C207.183 68.9874 210.424 65.364 214.902 65.364C220.715 65.364 222.494 70.7991 222.336 74.7717H210.043C209.946 77.6332 211.567 80.1751 215.156 80.1751C217.379 80.1751 218.936 79.0936 219.414 76.9644H222.082ZM219.476 72.3886C219.351 69.8128 217.413 67.7472 214.744 67.7472C211.918 67.7472 210.234 69.8784 210.043 72.3886H219.476ZM224.177 65.7445H226.718V68.352H226.781C227.926 66.3181 229.768 65.3636 232.118 65.3636C236.438 65.3636 237.773 67.8441 237.773 71.3701V82.1768H235.074V71.0527C235.074 69.0505 233.802 67.7467 231.738 67.7467C228.465 67.7467 226.879 69.9415 226.879 72.8961V82.1768H224.177V65.7445ZM242.539 76.9955C242.634 79.4125 244.731 80.1744 246.954 80.1744C248.638 80.1744 250.924 79.7935 250.924 77.7278C250.924 75.6304 248.257 75.2812 245.556 74.6758C242.888 74.0727 240.189 73.1816 240.189 70.0365C240.189 66.7306 243.461 65.3634 246.319 65.3634C249.941 65.3634 252.832 66.5084 253.055 70.5128H250.353C250.163 68.4153 248.32 67.7465 246.541 67.7465C244.923 67.7465 243.047 68.1931 243.047 69.8461C243.047 71.7826 245.907 72.1022 248.416 72.7054C251.117 73.3107 253.784 74.1996 253.784 77.3786C253.784 81.2877 250.131 82.5597 246.795 82.5597C243.11 82.5597 239.999 81.0655 239.84 76.9955H242.539ZM255.976 82.1771V65.7448H258.677V82.1771H255.976ZM255.976 62.7902V59.4842H258.677V62.7902H255.976ZM269.317 82.1773H266.427L260.327 65.745H263.345L267.95 79.4449H268.014L272.494 65.745H275.32L269.317 82.1773ZM290.856 76.9644C290.126 80.5899 287.52 82.5603 283.835 82.5603C278.593 82.5603 276.116 78.9348 275.957 73.9146C275.957 68.9874 279.198 65.364 283.676 65.364C289.489 65.364 291.268 70.7991 291.11 74.7717H278.815C278.72 77.6332 280.34 80.1751 283.93 80.1751C286.153 80.1751 287.71 79.0936 288.188 76.9644H290.856ZM288.25 72.3886C288.123 69.8128 286.185 67.7472 283.518 67.7472C280.689 67.7472 279.006 69.8784 278.815 72.3886H288.25ZM99.3044 98.7215C98.6698 95.5108 96.0954 93.8896 92.952 93.8896C87.5515 93.8896 85.2648 98.3384 85.2648 103.075C85.2648 108.256 87.5515 112.578 92.9837 112.578C96.9542 112.578 99.2409 109.78 99.5265 106.03H102.545C101.974 111.687 98.4477 115.12 92.7299 115.12C85.6773 115.12 82.2462 109.909 82.2462 103.297C82.2462 96.7172 85.9946 91.3477 92.9837 91.3477C97.7158 91.3477 101.625 93.8896 102.323 98.7215H99.3044ZM119.444 114.516C118.968 114.802 118.363 114.961 117.506 114.961C116.108 114.961 115.22 114.199 115.22 112.419C113.726 114.167 111.725 114.961 109.436 114.961C106.452 114.961 104.006 113.625 104.006 110.353C104.006 106.635 106.769 105.839 109.565 105.299C112.55 104.728 115.093 104.918 115.093 102.884C115.093 100.533 113.155 100.15 111.44 100.15C109.151 100.15 107.467 100.85 107.34 103.265H104.641C104.799 99.1973 107.945 97.7666 111.598 97.7666C114.551 97.7666 117.76 98.4332 117.76 102.279V110.734C117.76 112.006 117.76 112.578 118.619 112.578C118.839 112.578 119.095 112.546 119.444 112.419V114.516ZM115.061 106.095C114.012 106.857 111.979 106.889 110.168 107.206C108.389 107.523 106.864 108.161 106.864 110.163C106.864 111.943 108.389 112.578 110.041 112.578C113.599 112.578 115.061 110.353 115.061 108.859V106.095ZM121.001 98.1479H123.542V100.755H123.605C124.75 98.7215 126.592 97.767 128.942 97.767C133.262 97.767 134.597 100.245 134.597 103.774V114.58H131.897V103.456C131.897 101.454 130.626 100.15 128.561 100.15C125.289 100.15 123.7 102.343 123.7 105.3V114.58H121.001V98.1479ZM148.86 103.425C148.448 101.359 147.018 100.15 144.794 100.15C140.885 100.15 139.68 103.234 139.68 106.572C139.68 109.592 141.044 112.578 144.475 112.578C147.081 112.578 148.638 111.052 148.987 108.574H151.75C151.147 112.578 148.638 114.961 144.509 114.961C139.489 114.961 136.82 111.465 136.82 106.572C136.82 101.645 139.362 97.7672 144.57 97.7672C148.287 97.7672 151.274 99.5154 151.655 103.425H148.86ZM167.824 109.368C167.094 112.991 164.488 114.961 160.803 114.961C155.561 114.961 153.084 111.338 152.926 106.318C152.926 101.391 156.166 97.7672 160.645 97.7672C166.458 97.7672 168.237 103.202 168.078 107.175H155.784C155.688 110.034 157.309 112.578 160.898 112.578C163.122 112.578 164.679 111.497 165.155 109.368H167.824ZM165.22 104.792C165.091 102.218 163.153 100.15 160.486 100.15C157.658 100.15 155.974 102.28 155.784 104.792H165.22ZM169.826 98.1479H172.366V101.613H172.43C173.733 98.9755 175.544 97.6717 178.465 97.767V100.626C174.114 100.626 172.525 103.107 172.525 107.27V114.58H169.826V98.1479ZM202.239 98.7215C201.604 95.5108 199.03 93.8896 195.886 93.8896C190.486 93.8896 188.197 98.3384 188.197 103.075C188.197 108.256 190.486 112.578 195.918 112.578C199.889 112.578 202.175 109.78 202.461 106.03H205.48C204.906 111.687 201.382 115.12 195.664 115.12C188.612 115.12 185.181 109.909 185.181 103.297C185.181 96.7172 188.929 91.3477 195.918 91.3477C200.65 91.3477 204.557 93.8896 205.257 98.7215H202.239ZM221.838 109.368C221.108 112.991 218.504 114.961 214.819 114.961C209.577 114.961 207.098 111.338 206.942 106.318C206.942 101.391 210.18 97.7672 214.661 97.7672C220.474 97.7672 222.253 103.202 222.094 107.175H209.8C209.704 110.034 211.325 112.578 214.914 112.578C217.138 112.578 218.695 111.497 219.171 109.368H221.838ZM219.234 104.792C219.107 102.218 217.169 100.15 214.502 100.15C211.674 100.15 209.99 102.28 209.8 104.792H219.234ZM223.935 98.1479H226.477V100.755H226.541C227.683 98.7215 229.526 97.767 231.878 97.767C236.197 97.767 237.532 100.245 237.532 103.774V114.58H234.831V103.456C234.831 101.454 233.562 100.15 231.495 100.15C228.225 100.15 226.636 102.343 226.636 105.3V114.58H223.935V98.1479ZM244.394 98.1479H247.664V100.533H244.394V110.735C244.394 111.973 244.743 112.197 246.427 112.197H247.664V114.58H245.6C242.805 114.58 241.693 114.009 241.693 110.989V100.533H238.898V98.1479H241.693V93.2208H244.394V98.1479ZM263.707 109.368C262.975 112.991 260.371 114.961 256.686 114.961C251.445 114.961 248.967 111.338 248.809 106.318C248.809 101.391 252.047 97.7672 256.528 97.7672C262.341 97.7672 264.12 103.202 263.961 107.175H251.667C251.571 110.034 253.192 112.578 256.782 112.578C259.005 112.578 260.562 111.497 261.038 109.368H263.707ZM261.101 104.792C260.974 102.218 259.037 100.15 256.369 100.15C253.541 100.15 251.857 102.28 251.667 104.792H261.101ZM265.707 98.1479H268.249V101.613H268.313C269.614 98.9755 271.427 97.6717 274.348 97.767V100.626C269.997 100.626 268.408 103.107 268.408 107.27V114.58H265.707V98.1479Z" fill="white"/>
</svg>
