<svg width="474" height="281" viewBox="0 0 474 281" fill="none" xmlns="http://www.w3.org/2000/svg">
<path d="M277.345 197.989C276.528 198.884 276.592 200.272 277.488 201.088C278.383 201.904 279.77 201.84 280.587 200.945L277.345 197.989ZM352.846 201.742L344.287 177.9L327.918 197.233L352.846 201.742ZM280.587 200.945C285.261 195.82 293.123 189.454 302.885 186.306C312.56 183.186 324.163 183.197 336.628 190.853L338.925 187.114C325.263 178.723 312.312 178.656 301.538 182.13C290.853 185.576 282.373 192.474 277.345 197.989L280.587 200.945Z" fill="white"/>
<path d="M438.815 203.362C437.92 204.179 436.533 204.115 435.716 203.22C434.9 202.324 434.964 200.937 435.859 200.12L438.815 203.362ZM435.062 127.861L458.905 136.421L439.571 152.789L435.062 127.861ZM435.859 200.12C440.984 195.447 447.351 187.584 450.498 177.822C453.618 168.148 453.608 156.545 445.951 144.079L449.69 141.783C458.081 155.444 458.148 168.395 454.674 179.169C451.229 189.855 444.33 198.334 438.815 203.362L435.859 200.12Z" fill="white"/>
<path d="M354.467 246.551C355.284 245.656 355.22 244.269 354.325 243.452C353.429 242.636 352.042 242.7 351.225 243.595L354.467 246.551ZM278.966 242.798L287.526 266.641L303.894 247.307L278.966 242.798ZM351.225 243.595C346.552 248.72 338.689 255.087 328.927 258.235C319.253 261.354 307.65 261.344 295.184 253.687L292.887 257.426C306.549 265.817 319.5 265.884 330.274 262.41C340.96 258.965 349.439 252.066 354.467 246.551L351.225 243.595Z" fill="white"/>
<path d="M410.946 203.132L425.212 210.626L421.388 226.267L404.286 227.549L397.639 213.299L410.946 203.132Z" fill="#EC008C"/>
<path d="M391.039 176.982L405.306 184.476L401.482 200.117L384.379 201.399L377.732 187.149L391.039 176.982Z" fill="#EC008C"/>
<path d="M376.13 206.478L390.397 213.971L386.572 229.613L369.47 230.895L362.823 216.644L376.13 206.478Z" fill="#EC008C"/>
<path d="M395.566 230.621L409.832 238.114L406.008 253.755L388.906 255.037L382.259 240.787L395.566 230.621Z" fill="#EC008C"/>
<path d="M4.96848 204.161C4.96848 181.099 23.6641 162.403 46.7264 162.403H109.463C119.432 162.403 127.513 170.485 127.513 180.454V257.681C127.513 267.65 119.432 275.732 109.463 275.732H46.7264C23.6641 275.732 4.96848 257.036 4.96848 233.974V204.161Z" fill="#290000" stroke="#BE3C52" stroke-width="8.58039"/>
<ellipse cx="78.3146" cy="235.741" rx="27.229" ry="24.4556" fill="#393939"/>
<path d="M47.3914 120.07C47.3914 120.07 47.3914 143.544 66.9987 143.544C85.3806 143.544 85.3806 120.07 85.3806 120.07" stroke="#C6C6C6" stroke-width="9.29789" stroke-miterlimit="10"/>
<path d="M65.7729 143.545V180.863" stroke="#C6C6C6" stroke-width="9.85438" stroke-miterlimit="10"/>
<path d="M141.135 180.454C141.135 170.485 149.217 162.403 159.186 162.403H221.922C244.985 162.403 263.68 181.099 263.68 204.161V233.974C263.68 257.036 244.985 275.732 221.922 275.732H159.186C149.217 275.732 141.135 267.65 141.135 257.681V180.454Z" fill="#001129" stroke="#0069B4" stroke-width="8.58039"/>
<ellipse cx="214.188" cy="235.741" rx="27.229" ry="24.4556" fill="#393939"/>
<path d="M183.265 120.07C183.265 120.07 183.265 143.544 202.872 143.544C221.254 143.544 221.254 120.07 221.254 120.07" stroke="#C6C6C6" stroke-width="9.29789" stroke-miterlimit="10"/>
<path d="M201.646 143.545V180.863" stroke="#C6C6C6" stroke-width="9.85438" stroke-miterlimit="10"/>
<path d="M118.2 193.029H151.832" stroke="#00890E" stroke-width="8.93616" stroke-linecap="round"/>
<path d="M118.2 211.731H151.832" stroke="#00890E" stroke-width="8.93616" stroke-linecap="round"/>
<path d="M118.2 230.433H151.832" stroke="#00890E" stroke-width="8.93616" stroke-linecap="round"/>
<path d="M118.2 249.135H151.832" stroke="#00890E" stroke-width="8.93616" stroke-linecap="round"/>
<rect x="430.772" y="5.2548" width="122.262" height="113.328" rx="41.7579" transform="rotate(90 430.772 5.2548)" fill="#002729" stroke="#00890E" stroke-width="8.58039"/>
<ellipse cx="357.435" cy="78.3125" rx="27.229" ry="24.4556" transform="rotate(90 357.435 78.3125)" fill="#393939"/>
<path d="M473.106 47.3894C473.106 47.3894 449.631 47.3894 449.631 66.9967C449.631 85.3786 473.106 85.3786 473.106 85.3786" stroke="#C6C6C6" stroke-width="9.29789" stroke-miterlimit="10"/>
<path d="M449.631 65.7708L412.312 65.7708" stroke="#C6C6C6" stroke-width="9.85438" stroke-miterlimit="10"/>
</svg>
