<svg width="718" height="333" viewBox="0 0 718 333" fill="none" xmlns="http://www.w3.org/2000/svg">
<rect x="8.33823" y="120.85" width="220.462" height="204.353" rx="75.2976" fill="#001129" stroke="#0069B4" stroke-width="15.4721"/>
<ellipse cx="140.075" cy="253.091" rx="49.0992" ry="44.0981" fill="#393939"/>
<path d="M84.3151 44.5134C84.3151 44.5134 84.315 86.8427 119.671 86.8427C152.817 86.8427 152.817 44.5134 152.817 44.5134" stroke="#C6C6C6" stroke-width="16.7659" stroke-miterlimit="10"/>
<path d="M117.461 86.844V186.734" stroke="#C6C6C6" stroke-width="17.7694" stroke-miterlimit="10"/>
<path d="M117.461 161.171V182.81" stroke="#7B638D" stroke-width="17.7694" stroke-miterlimit="10"/>
<path d="M117.461 136.186V157.826" stroke="#0069B4" stroke-width="17.7694" stroke-miterlimit="10"/>
<path d="M117.461 111.107V132.746" stroke="#00890E" stroke-width="17.7694" stroke-miterlimit="10"/>
<g opacity="0.5">
<path d="M164.254 242.671C137.227 272.587 94.262 271.76 68.4047 240.833C67.4997 239.75 66.0455 239.723 65.0997 240.77C64.1538 241.817 64.1217 243.489 65.0267 244.572C92.6628 277.627 138.605 278.508 167.488 246.537C168.435 245.491 168.467 243.818 167.562 242.736C166.657 241.653 165.202 241.624 164.256 242.671L164.254 242.671Z" fill="#BC8CE2"/>
<path d="M154.558 231.074C133.141 254.781 99.0305 254.127 78.5375 229.616C77.6325 228.533 76.1783 228.506 75.2325 229.552C74.2866 230.599 74.2537 232.273 75.1587 233.356C97.4296 259.993 134.515 260.706 157.791 234.941C158.737 233.894 158.769 232.221 157.864 231.138C156.959 230.056 155.505 230.028 154.559 231.075L154.558 231.074Z" fill="#BC8CE2"/>
<path d="M144.861 219.476C129.018 237.014 103.833 236.53 88.6737 218.399C87.7686 217.316 86.3145 217.288 85.3687 218.335C84.4228 219.382 84.3907 221.055 85.2957 222.138C102.233 242.396 130.394 242.937 148.096 223.342C149.042 222.295 149.074 220.622 148.169 219.54C147.264 218.457 145.81 218.429 144.864 219.476L144.861 219.476Z" fill="#BC8CE2"/>
<path d="M135.164 207.877C124.928 219.207 108.601 218.894 98.8068 207.18C97.9018 206.098 96.4477 206.07 95.5018 207.117C94.5559 208.164 94.5239 209.837 95.4289 210.919C107 224.759 126.303 225.13 138.396 211.743C139.342 210.696 139.374 209.023 138.469 207.941C137.565 206.859 136.11 206.831 135.164 207.877L135.164 207.877Z" fill="#BC8CE2"/>
<path d="M125.469 196.281C120.807 201.441 113.403 201.3 108.942 195.964C108.037 194.881 106.582 194.853 105.637 195.9C104.692 196.946 104.659 198.62 105.564 199.703C111.802 207.164 122.18 207.364 128.7 200.147C129.646 199.1 129.678 197.427 128.773 196.344C127.868 195.262 126.414 195.234 125.468 196.281L125.469 196.281Z" fill="#BC8CE2"/>
</g>
<rect x="65.0475" y="108.12" width="105.672" height="73.7249" stroke="#C6C6C6" stroke-width="3.27394" stroke-dasharray="6.55 6.55"/>
<path d="M172 107.091L287.4 1.69448" stroke="#C6C6C6" stroke-width="3.27394"/>
<path d="M286.967 272.435L171.998 182.438" stroke="#C6C6C6" stroke-width="3.27394"/>
<rect x="287.462" y="1.63697" width="428.055" height="270.426" fill="#D9D9D9" fill-opacity="0.2" stroke="#C6C6C6" stroke-width="3.27394"/>
<path d="M315.958 19.2194L314.847 24.1031H317.077L315.958 19.2194ZM314.519 17.0613H317.404L320.626 28.9949H318.268L317.532 26.0454H314.375L313.656 28.9949H311.298L314.519 17.0613ZM317.141 47.9949H314.783V38.1235H311.753V36.0613H320.17V38.1235H317.141V47.9949ZM318.004 64.8368V62.5587H316.389V60.5765H320.066V66.0437C319.613 66.4327 319.112 66.7284 318.563 66.9309C318.02 67.1281 317.436 67.2267 316.813 67.2267C315.268 67.2267 314.074 66.6911 313.232 65.6201C312.39 64.5437 311.969 63.017 311.969 61.0401C311.969 59.0312 312.393 57.4965 313.24 56.4361C314.093 55.3757 315.321 54.8455 316.925 54.8455C317.404 54.8455 317.876 54.9148 318.34 55.0533C318.803 55.1865 319.238 55.381 319.643 55.6368V58.2505C319.312 57.8242 318.931 57.5045 318.5 57.2913C318.073 57.0729 317.604 56.9636 317.093 56.9636C316.198 56.9636 315.529 57.302 315.087 57.9787C314.644 58.6502 314.423 59.6706 314.423 61.0401C314.423 62.3669 314.636 63.3767 315.063 64.0694C315.489 64.7622 316.11 65.1085 316.925 65.1085C317.17 65.1085 317.383 65.0872 317.564 65.0446C317.746 64.9966 317.892 64.9273 318.004 64.8368ZM318.004 83.8368V81.5587H316.389V79.5765H320.066V85.0437C319.613 85.4327 319.112 85.7284 318.563 85.9309C318.02 86.1281 317.436 86.2267 316.813 86.2267C315.268 86.2267 314.074 85.6911 313.232 84.6201C312.39 83.5437 311.969 82.017 311.969 80.0401C311.969 78.0312 312.393 76.4965 313.24 75.4361C314.093 74.3757 315.321 73.8455 316.925 73.8455C317.404 73.8455 317.876 73.9148 318.34 74.0533C318.803 74.1865 319.238 74.381 319.643 74.6368V77.2505C319.312 76.8242 318.931 76.5045 318.5 76.2913C318.073 76.0729 317.604 75.9636 317.093 75.9636C316.198 75.9636 315.529 76.302 315.087 76.9787C314.644 77.6502 314.423 78.6706 314.423 80.0401C314.423 81.3669 314.636 82.3767 315.063 83.0694C315.489 83.7622 316.11 84.1085 316.925 84.1085C317.17 84.1085 317.383 84.0872 317.564 84.0446C317.746 83.9966 317.892 83.9273 318.004 83.8368ZM315.958 95.2194L314.847 100.103H317.077L315.958 95.2194ZM314.519 93.0613H317.404L320.626 104.995H318.268L317.532 102.045H314.375L313.656 104.995H311.298L314.519 93.0613ZM319.675 123.651C319.302 123.843 318.91 123.987 318.5 124.083C318.089 124.179 317.658 124.227 317.205 124.227C315.595 124.227 314.367 123.696 313.52 122.636C312.673 121.576 312.249 120.044 312.249 118.04C312.249 116.031 312.673 114.497 313.52 113.436C314.367 112.376 315.595 111.845 317.205 111.845C317.658 111.845 318.092 111.893 318.508 111.989C318.923 112.085 319.312 112.229 319.675 112.421V115.043C319.27 114.67 318.875 114.398 318.492 114.227C318.113 114.052 317.722 113.964 317.317 113.964C316.453 113.964 315.801 114.307 315.358 114.995C314.921 115.677 314.703 116.692 314.703 118.04C314.703 119.383 314.921 120.398 315.358 121.085C315.801 121.767 316.453 122.109 317.317 122.109C317.722 122.109 318.113 122.023 318.492 121.853C318.875 121.677 319.27 121.402 319.675 121.029V123.651ZM319.675 142.651C319.302 142.843 318.91 142.987 318.5 143.083C318.089 143.179 317.658 143.227 317.205 143.227C315.595 143.227 314.367 142.696 313.52 141.636C312.673 140.576 312.249 139.044 312.249 137.04C312.249 135.031 312.673 133.497 313.52 132.436C314.367 131.376 315.595 130.845 317.205 130.845C317.658 130.845 318.092 130.893 318.508 130.989C318.923 131.085 319.312 131.229 319.675 131.421V134.043C319.27 133.67 318.875 133.398 318.492 133.227C318.113 133.052 317.722 132.964 317.317 132.964C316.453 132.964 315.801 133.307 315.358 133.995C314.921 134.677 314.703 135.692 314.703 137.04C314.703 138.383 314.921 139.398 315.358 140.085C315.801 140.767 316.453 141.109 317.317 141.109C317.722 141.109 318.113 141.023 318.492 140.853C318.875 140.677 319.27 140.402 319.675 140.029V142.651ZM315.958 152.219L314.847 157.103H317.077L315.958 152.219ZM314.519 150.061H317.404L320.626 161.995H318.268L317.532 159.045H314.375L313.656 161.995H311.298L314.519 150.061ZM318.004 178.837V176.559H316.389V174.576H320.066V180.044C319.613 180.433 319.112 180.728 318.563 180.931C318.02 181.128 317.436 181.227 316.813 181.227C315.268 181.227 314.074 180.691 313.232 179.62C312.39 178.544 311.969 177.017 311.969 175.04C311.969 173.031 312.393 171.497 313.24 170.436C314.093 169.376 315.321 168.845 316.925 168.845C317.404 168.845 317.876 168.915 318.34 169.053C318.803 169.187 319.238 169.381 319.643 169.637V172.251C319.312 171.824 318.931 171.504 318.5 171.291C318.073 171.073 317.604 170.964 317.093 170.964C316.198 170.964 315.529 171.302 315.087 171.979C314.644 172.65 314.423 173.671 314.423 175.04C314.423 176.367 314.636 177.377 315.063 178.069C315.489 178.762 316.11 179.109 316.925 179.109C317.17 179.109 317.383 179.087 317.564 179.045C317.746 178.997 317.892 178.927 318.004 178.837ZM315.958 190.219L314.847 195.103H317.077L315.958 190.219ZM314.519 188.061H317.404L320.626 199.995H318.268L317.532 197.045H314.375L313.656 199.995H311.298L314.519 188.061ZM317.141 218.995H314.783V209.123H311.753V207.061H320.17V209.123H317.141V218.995ZM315.958 228.219L314.847 233.103H317.077L315.958 228.219ZM314.519 226.061H317.404L320.626 237.995H318.268L317.532 235.045H314.375L313.656 237.995H311.298L314.519 226.061ZM319.675 256.651C319.302 256.843 318.91 256.987 318.5 257.083C318.089 257.179 317.658 257.227 317.205 257.227C315.595 257.227 314.367 256.696 313.52 255.636C312.673 254.576 312.249 253.044 312.249 251.04C312.249 249.031 312.673 247.497 313.52 246.436C314.367 245.376 315.595 244.845 317.205 244.845C317.658 244.845 318.092 244.893 318.508 244.989C318.923 245.085 319.312 245.229 319.675 245.421V248.043C319.27 247.67 318.875 247.398 318.492 247.227C318.113 247.052 317.722 246.964 317.317 246.964C316.453 246.964 315.801 247.307 315.358 247.995C314.921 248.677 314.703 249.692 314.703 251.04C314.703 252.383 314.921 253.398 315.358 254.085C315.801 254.767 316.453 255.109 317.317 255.109C317.722 255.109 318.113 255.023 318.492 254.853C318.875 254.677 319.27 254.402 319.675 254.029V256.651Z" fill="white"/>
<path d="M541.339 90.7809C540.776 90.7809 540.263 90.6437 539.798 90.3694C539.332 90.0903 538.96 89.7183 538.681 89.2533C538.407 88.7882 538.27 88.2743 538.27 87.7116C538.27 87.1443 538.407 86.6304 538.681 86.17C538.96 85.7049 539.332 85.3352 539.798 85.0608C540.263 84.7818 540.776 84.6423 541.339 84.6423C541.907 84.6423 542.42 84.7818 542.881 85.0608C543.346 85.3352 543.716 85.7049 543.99 86.17C544.269 86.6304 544.408 87.1443 544.408 87.7116C544.408 88.2743 544.269 88.7882 543.99 89.2533C543.716 89.7183 543.346 90.0903 542.881 90.3694C542.42 90.6437 541.907 90.7809 541.339 90.7809ZM557.314 79.1175H561.039L564.974 88.7161H565.141L569.076 79.1175H572.801V93.4038H569.871V84.1052H569.752L566.055 93.3341H564.06L560.363 84.0703H560.244V93.4038H557.314V79.1175ZM575.233 93.4038V82.6891H578.205V93.4038H575.233ZM576.726 81.3079C576.284 81.3079 575.905 81.1614 575.589 80.8684C575.278 80.5708 575.122 80.215 575.122 79.8011C575.122 79.3919 575.278 79.0408 575.589 78.7478C575.905 78.4502 576.284 78.3014 576.726 78.3014C577.168 78.3014 577.545 78.4502 577.856 78.7478C578.172 79.0408 578.331 79.3919 578.331 79.8011C578.331 80.215 578.172 80.5708 577.856 80.8684C577.545 81.1614 577.168 81.3079 576.726 81.3079ZM585.413 97.645C584.45 97.645 583.625 97.5125 582.936 97.2474C582.253 96.987 581.709 96.6312 581.304 96.1801C580.899 95.7291 580.637 95.2221 580.516 94.6594L583.264 94.2897C583.348 94.5036 583.48 94.7036 583.662 94.8896C583.843 95.0757 584.083 95.2245 584.38 95.3361C584.683 95.4523 585.05 95.5105 585.482 95.5105C586.129 95.5105 586.661 95.3524 587.08 95.0361C587.503 94.7245 587.715 94.2014 587.715 93.4666V91.5064H587.589C587.459 91.804 587.264 92.0854 587.003 92.3505C586.743 92.6156 586.408 92.8318 585.999 92.9992C585.589 93.1666 585.101 93.2503 584.534 93.2503C583.729 93.2503 582.997 93.0643 582.336 92.6923C581.681 92.3156 581.157 91.7413 580.767 90.9693C580.381 90.1926 580.188 89.2114 580.188 88.0255C580.188 86.8117 580.385 85.7979 580.781 84.9841C581.176 84.1703 581.702 83.5611 582.357 83.1565C583.018 82.7519 583.741 82.5496 584.527 82.5496C585.127 82.5496 585.629 82.6519 586.034 82.8565C586.438 83.0565 586.764 83.3076 587.01 83.6099C587.261 83.9075 587.454 84.2005 587.589 84.4888H587.701V82.6891H590.651V93.5084C590.651 94.4199 590.428 95.1826 589.982 95.7965C589.535 96.4103 588.917 96.8707 588.126 97.1777C587.34 97.4893 586.436 97.645 585.413 97.645ZM585.475 91.0181C585.954 91.0181 586.359 90.8995 586.689 90.6623C587.024 90.4205 587.28 90.0764 587.457 89.6299C587.638 89.1788 587.729 88.6394 587.729 88.0116C587.729 87.3838 587.64 86.8397 587.464 86.3793C587.287 85.9142 587.031 85.5538 586.696 85.298C586.361 85.0422 585.954 84.9144 585.475 84.9144C584.987 84.9144 584.576 85.0469 584.241 85.312C583.906 85.5724 583.652 85.9351 583.48 86.4002C583.308 86.8652 583.222 87.4024 583.222 88.0116C583.222 88.6301 583.308 89.1649 583.48 89.616C583.657 90.0624 583.911 90.4089 584.241 90.6554C584.576 90.8972 584.987 91.0181 585.475 91.0181ZM593.016 93.4038V82.6891H595.897V84.5586H596.009C596.204 83.8936 596.532 83.3913 596.992 83.0518C597.453 82.7077 597.983 82.5356 598.583 82.5356C598.732 82.5356 598.892 82.5449 599.064 82.5635C599.236 82.5821 599.387 82.6077 599.518 82.6403V85.2771C599.378 85.2352 599.185 85.198 598.939 85.1655C598.692 85.1329 598.467 85.1166 598.262 85.1166C597.825 85.1166 597.434 85.212 597.09 85.4027C596.751 85.5887 596.481 85.8491 596.281 86.1839C596.086 86.5188 595.988 86.9048 595.988 87.3419V93.4038H593.016ZM603.802 93.6061C603.119 93.6061 602.51 93.4875 601.975 93.2503C601.44 93.0085 601.017 92.6528 600.705 92.1831C600.398 91.7087 600.245 91.1181 600.245 90.4112C600.245 89.816 600.354 89.316 600.573 88.9114C600.791 88.5068 601.089 88.1813 601.466 87.9348C601.842 87.6884 602.27 87.5023 602.749 87.3768C603.233 87.2512 603.74 87.1629 604.27 87.1117C604.893 87.0466 605.395 86.9861 605.777 86.9303C606.158 86.8699 606.435 86.7815 606.607 86.6653C606.779 86.549 606.865 86.3769 606.865 86.1491V86.1072C606.865 85.6654 606.725 85.3236 606.446 85.0818C606.172 84.8399 605.781 84.719 605.274 84.719C604.739 84.719 604.314 84.8376 603.998 85.0748C603.682 85.3073 603.472 85.6003 603.37 85.9537L600.621 85.7305C600.761 85.0794 601.035 84.5167 601.445 84.0424C601.854 83.5634 602.382 83.196 603.028 82.9402C603.679 82.6798 604.433 82.5496 605.288 82.5496C605.884 82.5496 606.453 82.6193 606.997 82.7589C607.546 82.8984 608.032 83.1146 608.455 83.4076C608.883 83.7006 609.22 84.0773 609.467 84.5377C609.713 84.9934 609.836 85.5398 609.836 86.177V93.4038H607.018V91.918H606.935C606.762 92.2528 606.532 92.5481 606.244 92.8039C605.956 93.055 605.609 93.2527 605.205 93.3968C604.8 93.5363 604.333 93.6061 603.802 93.6061ZM604.653 91.5552C605.091 91.5552 605.477 91.4692 605.811 91.2971C606.146 91.1204 606.409 90.8832 606.6 90.5856C606.79 90.288 606.886 89.9508 606.886 89.5741V88.4371C606.793 88.4975 606.665 88.5534 606.502 88.6045C606.344 88.651 606.165 88.6952 605.965 88.737C605.765 88.7743 605.565 88.8091 605.365 88.8417C605.165 88.8696 604.984 88.8952 604.821 88.9184C604.472 88.9696 604.167 89.051 603.907 89.1626C603.647 89.2742 603.444 89.4253 603.3 89.616C603.156 89.802 603.084 90.0345 603.084 90.3136C603.084 90.7182 603.23 91.0274 603.523 91.2413C603.821 91.4506 604.198 91.5552 604.653 91.5552ZM617.841 82.6891V84.9213H611.389V82.6891H617.841ZM612.853 80.122H615.825V90.1113C615.825 90.3856 615.867 90.5996 615.951 90.753C616.034 90.9018 616.151 91.0065 616.299 91.0669C616.453 91.1274 616.63 91.1576 616.83 91.1576C616.969 91.1576 617.109 91.146 617.248 91.1227C617.388 91.0948 617.495 91.0739 617.569 91.06L618.036 93.2713C617.888 93.3178 617.678 93.3713 617.409 93.4317C617.139 93.4968 616.811 93.5363 616.425 93.5503C615.709 93.5782 615.081 93.4829 614.542 93.2643C614.007 93.0457 613.591 92.7062 613.293 92.2458C612.995 91.7854 612.849 91.2041 612.853 90.5019V80.122ZM619.777 93.4038V82.6891H622.748V93.4038H619.777ZM621.27 81.3079C620.828 81.3079 620.449 81.1614 620.133 80.8684C619.821 80.5708 619.665 80.215 619.665 79.8011C619.665 79.3919 619.821 79.0408 620.133 78.7478C620.449 78.4502 620.828 78.3014 621.27 78.3014C621.711 78.3014 622.088 78.4502 622.4 78.7478C622.716 79.0408 622.874 79.3919 622.874 79.8011C622.874 80.215 622.716 80.5708 622.4 80.8684C622.088 81.1614 621.711 81.3079 621.27 81.3079ZM629.97 93.6131C628.887 93.6131 627.949 93.3829 627.159 92.9225C626.373 92.4574 625.766 91.811 625.338 90.9832C624.91 90.1508 624.696 89.1858 624.696 88.0883C624.696 86.9815 624.91 86.0142 625.338 85.1864C625.766 84.354 626.373 83.7075 627.159 83.2472C627.949 82.7821 628.887 82.5496 629.97 82.5496C631.054 82.5496 631.988 82.7821 632.774 83.2472C633.565 83.7075 634.174 84.354 634.602 85.1864C635.03 86.0142 635.244 86.9815 635.244 88.0883C635.244 89.1858 635.03 90.1508 634.602 90.9832C634.174 91.811 633.565 92.4574 632.774 92.9225C631.988 93.3829 631.054 93.6131 629.97 93.6131ZM629.984 91.3111C630.477 91.3111 630.889 91.1716 631.219 90.8925C631.549 90.6089 631.798 90.2229 631.965 89.7346C632.137 89.2463 632.223 88.6905 632.223 88.0674C632.223 87.4442 632.137 86.8885 631.965 86.4002C631.798 85.9119 631.549 85.5259 631.219 85.2422C630.889 84.9585 630.477 84.8167 629.984 84.8167C629.486 84.8167 629.068 84.9585 628.728 85.2422C628.394 85.5259 628.14 85.9119 627.968 86.4002C627.801 86.8885 627.717 87.4442 627.717 88.0674C627.717 88.6905 627.801 89.2463 627.968 89.7346C628.14 90.2229 628.394 90.6089 628.728 90.8925C629.068 91.1716 629.486 91.3111 629.984 91.3111ZM640.148 87.2094V93.4038H637.176V82.6891H640.008V84.5795H640.134C640.371 83.9564 640.769 83.4634 641.327 83.1007C641.885 82.7333 642.561 82.5496 643.357 82.5496C644.101 82.5496 644.749 82.7123 645.303 83.0379C645.856 83.3634 646.286 83.8285 646.593 84.433C646.9 85.0329 647.054 85.7491 647.054 86.5815V93.4038H644.082V87.1117C644.087 86.456 643.919 85.9444 643.58 85.577C643.24 85.205 642.773 85.019 642.178 85.019C641.778 85.019 641.424 85.105 641.117 85.2771C640.815 85.4492 640.578 85.7003 640.406 86.0305C640.238 86.356 640.152 86.749 640.148 87.2094ZM541.339 114.781C540.776 114.781 540.263 114.644 539.798 114.369C539.332 114.09 538.96 113.718 538.681 113.253C538.407 112.788 538.27 112.274 538.27 111.712C538.27 111.144 538.407 110.63 538.681 110.17C538.96 109.705 539.332 109.335 539.798 109.061C540.263 108.782 540.776 108.642 541.339 108.642C541.907 108.642 542.42 108.782 542.881 109.061C543.346 109.335 543.716 109.705 543.99 110.17C544.269 110.63 544.408 111.144 544.408 111.712C544.408 112.274 544.269 112.788 543.99 113.253C543.716 113.718 543.346 114.09 542.881 114.369C542.42 114.644 541.907 114.781 541.339 114.781ZM557.314 117.404V103.118H562.951C564.034 103.118 564.958 103.324 565.72 103.738C566.483 104.148 567.064 104.717 567.464 105.447C567.869 106.173 568.071 107.01 568.071 107.959C568.071 108.907 567.866 109.744 567.457 110.47C567.048 111.195 566.455 111.76 565.678 112.165C564.906 112.57 563.972 112.772 562.874 112.772H559.282V110.351H562.386C562.967 110.351 563.446 110.251 563.823 110.051C564.204 109.847 564.488 109.565 564.674 109.207C564.865 108.845 564.96 108.428 564.96 107.959C564.96 107.484 564.865 107.07 564.674 106.717C564.488 106.359 564.204 106.082 563.823 105.887C563.441 105.687 562.958 105.587 562.372 105.587H560.335V117.404H557.314ZM569.977 117.404V106.689H572.858V108.559H572.97C573.165 107.894 573.493 107.391 573.953 107.052C574.414 106.708 574.944 106.536 575.544 106.536C575.693 106.536 575.853 106.545 576.025 106.564C576.197 106.582 576.348 106.608 576.479 106.64V109.277C576.339 109.235 576.146 109.198 575.9 109.165C575.653 109.133 575.427 109.117 575.223 109.117C574.786 109.117 574.395 109.212 574.051 109.403C573.711 109.589 573.442 109.849 573.242 110.184C573.046 110.519 572.949 110.905 572.949 111.342V117.404H569.977ZM582.357 117.613C581.274 117.613 580.337 117.383 579.546 116.922C578.76 116.457 578.153 115.811 577.725 114.983C577.298 114.151 577.084 113.186 577.084 112.088C577.084 110.981 577.298 110.014 577.725 109.186C578.153 108.354 578.76 107.708 579.546 107.247C580.337 106.782 581.274 106.55 582.357 106.55C583.441 106.55 584.376 106.782 585.162 107.247C585.952 107.708 586.561 108.354 586.989 109.186C587.417 110.014 587.631 110.981 587.631 112.088C587.631 113.186 587.417 114.151 586.989 114.983C586.561 115.811 585.952 116.457 585.162 116.922C584.376 117.383 583.441 117.613 582.357 117.613ZM582.371 115.311C582.864 115.311 583.276 115.172 583.606 114.893C583.936 114.609 584.185 114.223 584.352 113.735C584.524 113.246 584.61 112.691 584.61 112.067C584.61 111.444 584.524 110.888 584.352 110.4C584.185 109.912 583.936 109.526 583.606 109.242C583.276 108.959 582.864 108.817 582.371 108.817C581.874 108.817 581.455 108.959 581.116 109.242C580.781 109.526 580.527 109.912 580.355 110.4C580.188 110.888 580.104 111.444 580.104 112.067C580.104 112.691 580.188 113.246 580.355 113.735C580.527 114.223 580.781 114.609 581.116 114.893C581.455 115.172 581.874 115.311 582.371 115.311ZM592.535 103.118V117.404H589.563V103.118H592.535ZM594.915 117.404V106.689H597.887V117.404H594.915ZM596.408 105.308C595.966 105.308 595.587 105.161 595.271 104.868C594.96 104.571 594.804 104.215 594.804 103.801C594.804 103.392 594.96 103.041 595.271 102.748C595.587 102.45 595.966 102.301 596.408 102.301C596.85 102.301 597.227 102.45 597.538 102.748C597.854 103.041 598.013 103.392 598.013 103.801C598.013 104.215 597.854 104.571 597.538 104.868C597.227 105.161 596.85 105.308 596.408 105.308ZM606.029 106.689V108.921H599.416V106.689H606.029ZM600.93 117.404V105.915C600.93 105.138 601.081 104.494 601.384 103.983C601.691 103.471 602.109 103.087 602.639 102.832C603.169 102.576 603.772 102.448 604.446 102.448C604.902 102.448 605.318 102.483 605.695 102.552C606.076 102.622 606.36 102.685 606.546 102.741L606.015 104.973C605.899 104.936 605.755 104.901 605.583 104.868C605.416 104.836 605.243 104.82 605.067 104.82C604.63 104.82 604.325 104.922 604.153 105.127C603.981 105.327 603.895 105.608 603.895 105.971V117.404H600.93ZM612.344 117.613C611.242 117.613 610.293 117.39 609.498 116.943C608.708 116.492 608.098 115.855 607.67 115.032C607.243 114.204 607.029 113.225 607.029 112.095C607.029 110.993 607.243 110.026 607.67 109.193C608.098 108.361 608.701 107.712 609.477 107.247C610.258 106.782 611.175 106.55 612.226 106.55C612.932 106.55 613.591 106.664 614.2 106.891C614.814 107.115 615.348 107.452 615.804 107.903C616.265 108.354 616.623 108.921 616.878 109.605C617.134 110.284 617.262 111.079 617.262 111.991V112.807H608.215V110.965H614.465C614.465 110.537 614.372 110.158 614.186 109.828C614 109.498 613.742 109.24 613.411 109.054C613.086 108.863 612.707 108.768 612.274 108.768C611.823 108.768 611.423 108.872 611.075 109.082C610.73 109.286 610.461 109.563 610.265 109.912C610.07 110.256 609.97 110.64 609.965 111.063V112.814C609.965 113.344 610.063 113.802 610.258 114.188C610.458 114.574 610.74 114.872 611.103 115.081C611.465 115.29 611.895 115.395 612.393 115.395C612.723 115.395 613.025 115.348 613.3 115.255C613.574 115.162 613.809 115.023 614.004 114.837C614.2 114.651 614.349 114.423 614.451 114.153L617.199 114.334C617.06 114.995 616.774 115.572 616.341 116.064C615.913 116.553 615.36 116.934 614.681 117.208C614.007 117.478 613.228 117.613 612.344 117.613ZM619.201 117.404V106.689H622.082V108.559H622.194C622.389 107.894 622.717 107.391 623.177 107.052C623.638 106.708 624.168 106.536 624.768 106.536C624.917 106.536 625.077 106.545 625.249 106.564C625.421 106.582 625.572 106.608 625.703 106.64V109.277C625.563 109.235 625.37 109.198 625.124 109.165C624.877 109.133 624.652 109.117 624.447 109.117C624.01 109.117 623.619 109.212 623.275 109.403C622.936 109.589 622.666 109.849 622.466 110.184C622.271 110.519 622.173 110.905 622.173 111.342V117.404H619.201ZM629.988 117.606C629.304 117.606 628.695 117.488 628.16 117.25C627.625 117.009 627.202 116.653 626.89 116.183C626.583 115.709 626.43 115.118 626.43 114.411C626.43 113.816 626.539 113.316 626.758 112.911C626.976 112.507 627.274 112.181 627.651 111.935C628.027 111.688 628.455 111.502 628.934 111.377C629.418 111.251 629.925 111.163 630.455 111.112C631.078 111.047 631.58 110.986 631.962 110.93C632.343 110.87 632.62 110.782 632.792 110.665C632.964 110.549 633.05 110.377 633.05 110.149V110.107C633.05 109.665 632.91 109.324 632.631 109.082C632.357 108.84 631.966 108.719 631.459 108.719C630.925 108.719 630.499 108.838 630.183 109.075C629.867 109.307 629.657 109.6 629.555 109.954L626.807 109.731C626.946 109.079 627.221 108.517 627.63 108.042C628.039 107.563 628.567 107.196 629.213 106.94C629.864 106.68 630.618 106.55 631.473 106.55C632.069 106.55 632.638 106.619 633.182 106.759C633.731 106.898 634.217 107.115 634.64 107.408C635.068 107.701 635.405 108.077 635.652 108.538C635.898 108.993 636.022 109.54 636.022 110.177V117.404H633.203V115.918H633.12C632.948 116.253 632.717 116.548 632.429 116.804C632.141 117.055 631.794 117.253 631.39 117.397C630.985 117.536 630.518 117.606 629.988 117.606ZM630.839 115.555C631.276 115.555 631.662 115.469 631.997 115.297C632.331 115.12 632.594 114.883 632.785 114.586C632.975 114.288 633.071 113.951 633.071 113.574V112.437C632.978 112.498 632.85 112.553 632.687 112.605C632.529 112.651 632.35 112.695 632.15 112.737C631.95 112.774 631.75 112.809 631.55 112.842C631.35 112.87 631.169 112.895 631.006 112.918C630.657 112.97 630.353 113.051 630.092 113.163C629.832 113.274 629.629 113.425 629.485 113.616C629.341 113.802 629.269 114.035 629.269 114.314C629.269 114.718 629.416 115.027 629.709 115.241C630.006 115.451 630.383 115.555 630.839 115.555ZM644.026 106.689V108.921H637.574V106.689H644.026ZM639.039 104.122H642.01V114.111C642.01 114.386 642.052 114.6 642.136 114.753C642.219 114.902 642.336 115.006 642.485 115.067C642.638 115.127 642.815 115.158 643.015 115.158C643.154 115.158 643.294 115.146 643.433 115.123C643.573 115.095 643.68 115.074 643.754 115.06L644.222 117.271C644.073 117.318 643.863 117.371 643.594 117.432C643.324 117.497 642.996 117.536 642.61 117.55C641.894 117.578 641.266 117.483 640.727 117.264C640.192 117.046 639.776 116.706 639.478 116.246C639.18 115.785 639.034 115.204 639.039 114.502V104.122ZM645.962 117.404V106.689H648.934V117.404H645.962ZM647.455 105.308C647.013 105.308 646.634 105.161 646.318 104.868C646.006 104.571 645.85 104.215 645.85 103.801C645.85 103.392 646.006 103.041 646.318 102.748C646.634 102.45 647.013 102.301 647.455 102.301C647.897 102.301 648.273 102.45 648.585 102.748C648.901 103.041 649.059 103.392 649.059 103.801C649.059 104.215 648.901 104.571 648.585 104.868C648.273 105.161 647.897 105.308 647.455 105.308ZM656.155 117.613C655.072 117.613 654.135 117.383 653.344 116.922C652.558 116.457 651.951 115.811 651.523 114.983C651.096 114.151 650.882 113.186 650.882 112.088C650.882 110.981 651.096 110.014 651.523 109.186C651.951 108.354 652.558 107.708 653.344 107.247C654.135 106.782 655.072 106.55 656.155 106.55C657.239 106.55 658.174 106.782 658.959 107.247C659.75 107.708 660.359 108.354 660.787 109.186C661.215 110.014 661.429 110.981 661.429 112.088C661.429 113.186 661.215 114.151 660.787 114.983C660.359 115.811 659.75 116.457 658.959 116.922C658.174 117.383 657.239 117.613 656.155 117.613ZM656.169 115.311C656.662 115.311 657.074 115.172 657.404 114.893C657.734 114.609 657.983 114.223 658.15 113.735C658.322 113.246 658.408 112.691 658.408 112.067C658.408 111.444 658.322 110.888 658.15 110.4C657.983 109.912 657.734 109.526 657.404 109.242C657.074 108.959 656.662 108.817 656.169 108.817C655.672 108.817 655.253 108.959 654.914 109.242C654.579 109.526 654.325 109.912 654.153 110.4C653.986 110.888 653.902 111.444 653.902 112.067C653.902 112.691 653.986 113.246 654.153 113.735C654.325 114.223 654.579 114.609 654.914 114.893C655.253 115.172 655.672 115.311 656.169 115.311ZM666.333 111.209V117.404H663.361V106.689H666.193V108.58H666.319C666.556 107.956 666.954 107.463 667.512 107.101C668.07 106.733 668.746 106.55 669.542 106.55C670.286 106.55 670.934 106.712 671.488 107.038C672.041 107.363 672.471 107.828 672.778 108.433C673.085 109.033 673.239 109.749 673.239 110.582V117.404H670.267V111.112C670.272 110.456 670.104 109.944 669.765 109.577C669.425 109.205 668.958 109.019 668.363 109.019C667.963 109.019 667.609 109.105 667.302 109.277C667 109.449 666.763 109.7 666.591 110.03C666.424 110.356 666.337 110.749 666.333 111.209ZM541.339 138.781C540.776 138.781 540.263 138.644 539.798 138.369C539.332 138.09 538.96 137.718 538.681 137.253C538.407 136.788 538.27 136.274 538.27 135.712C538.27 135.144 538.407 134.63 538.681 134.17C538.96 133.705 539.332 133.335 539.798 133.061C540.263 132.782 540.776 132.642 541.339 132.642C541.907 132.642 542.42 132.782 542.881 133.061C543.346 133.335 543.716 133.705 543.99 134.17C544.269 134.63 544.408 135.144 544.408 135.712C544.408 136.274 544.269 136.788 543.99 137.253C543.716 137.718 543.346 138.09 542.881 138.369C542.42 138.644 541.907 138.781 541.339 138.781ZM557.314 141.404V127.118H560.335V133.417H560.523L565.664 127.118H569.285L563.983 133.514L569.348 141.404H565.734L561.821 135.53L560.335 137.344V141.404H557.314ZM571.473 141.404V130.689H574.445V141.404H571.473ZM572.966 129.308C572.524 129.308 572.145 129.161 571.829 128.868C571.518 128.571 571.362 128.215 571.362 127.801C571.362 127.392 571.518 127.041 571.829 126.748C572.145 126.45 572.524 126.301 572.966 126.301C573.408 126.301 573.785 126.45 574.096 126.748C574.413 127.041 574.571 127.392 574.571 127.801C574.571 128.215 574.413 128.571 574.096 128.868C573.785 129.161 573.408 129.308 572.966 129.308ZM579.797 127.118V141.404H576.826V127.118H579.797ZM585.149 127.118V141.404H582.178V127.118H585.149ZM587.53 141.404V130.689H590.501V141.404H587.53ZM589.023 129.308C588.581 129.308 588.202 129.161 587.886 128.868C587.574 128.571 587.418 128.215 587.418 127.801C587.418 127.392 587.574 127.041 587.886 126.748C588.202 126.45 588.581 126.301 589.023 126.301C589.464 126.301 589.841 126.45 590.153 126.748C590.469 127.041 590.627 127.392 590.627 127.801C590.627 128.215 590.469 128.571 590.153 128.868C589.841 129.161 589.464 129.308 589.023 129.308ZM595.854 135.209V141.404H592.882V130.689H595.714V132.58H595.84C596.077 131.956 596.474 131.463 597.032 131.101C597.591 130.733 598.267 130.55 599.062 130.55C599.806 130.55 600.455 130.712 601.009 131.038C601.562 131.363 601.992 131.828 602.299 132.433C602.606 133.033 602.76 133.749 602.76 134.582V141.404H599.788V135.112C599.793 134.456 599.625 133.944 599.286 133.577C598.946 133.205 598.479 133.019 597.884 133.019C597.484 133.019 597.13 133.105 596.823 133.277C596.521 133.449 596.284 133.7 596.112 134.03C595.944 134.356 595.858 134.749 595.854 135.209ZM609.929 145.645C608.966 145.645 608.141 145.513 607.452 145.247C606.769 144.987 606.225 144.631 605.82 144.18C605.416 143.729 605.153 143.222 605.032 142.659L607.78 142.29C607.864 142.504 607.997 142.704 608.178 142.89C608.359 143.076 608.599 143.224 608.896 143.336C609.199 143.452 609.566 143.51 609.999 143.51C610.645 143.51 611.178 143.352 611.596 143.036C612.019 142.725 612.231 142.201 612.231 141.467V139.506H612.105C611.975 139.804 611.78 140.085 611.519 140.35C611.259 140.616 610.924 140.832 610.515 140.999C610.106 141.167 609.617 141.25 609.05 141.25C608.245 141.25 607.513 141.064 606.853 140.692C606.197 140.316 605.674 139.741 605.283 138.969C604.897 138.193 604.704 137.211 604.704 136.026C604.704 134.812 604.902 133.798 605.297 132.984C605.692 132.17 606.218 131.561 606.873 131.156C607.534 130.752 608.257 130.55 609.043 130.55C609.643 130.55 610.145 130.652 610.55 130.857C610.954 131.056 611.28 131.308 611.526 131.61C611.777 131.908 611.97 132.201 612.105 132.489H612.217V130.689H615.168V141.508C615.168 142.42 614.944 143.183 614.498 143.796C614.052 144.41 613.433 144.871 612.642 145.178C611.856 145.489 610.952 145.645 609.929 145.645ZM609.992 139.018C610.471 139.018 610.875 138.9 611.205 138.662C611.54 138.421 611.796 138.076 611.973 137.63C612.154 137.179 612.245 136.639 612.245 136.012C612.245 135.384 612.156 134.84 611.98 134.379C611.803 133.914 611.547 133.554 611.212 133.298C610.878 133.042 610.471 132.914 609.992 132.914C609.503 132.914 609.092 133.047 608.757 133.312C608.422 133.572 608.169 133.935 607.997 134.4C607.825 134.865 607.738 135.402 607.738 136.012C607.738 136.63 607.825 137.165 607.997 137.616C608.173 138.062 608.427 138.409 608.757 138.655C609.092 138.897 609.503 139.018 609.992 139.018ZM541.339 162.781C540.776 162.781 540.263 162.644 539.798 162.369C539.332 162.09 538.96 161.718 538.681 161.253C538.407 160.788 538.27 160.274 538.27 159.712C538.27 159.144 538.407 158.63 538.681 158.17C538.96 157.705 539.332 157.335 539.798 157.061C540.263 156.782 540.776 156.642 541.339 156.642C541.907 156.642 542.42 156.782 542.881 157.061C543.346 157.335 543.716 157.705 543.99 158.17C544.269 158.63 544.408 159.144 544.408 159.712C544.408 160.274 544.269 160.788 543.99 161.253C543.716 161.718 543.346 162.09 542.881 162.369C542.42 162.644 541.907 162.781 541.339 162.781ZM565.064 155.226C565.009 154.664 564.769 154.226 564.346 153.915C563.923 153.603 563.348 153.447 562.623 153.447C562.13 153.447 561.714 153.517 561.374 153.657C561.035 153.792 560.774 153.98 560.593 154.222C560.416 154.464 560.328 154.738 560.328 155.045C560.319 155.301 560.372 155.524 560.488 155.715C560.609 155.905 560.774 156.07 560.984 156.21C561.193 156.345 561.435 156.463 561.709 156.566C561.984 156.663 562.277 156.747 562.588 156.817L563.872 157.124C564.495 157.263 565.067 157.449 565.588 157.682C566.109 157.914 566.56 158.2 566.941 158.54C567.322 158.879 567.618 159.279 567.827 159.74C568.041 160.2 568.15 160.728 568.155 161.323C568.15 162.197 567.927 162.955 567.485 163.597C567.048 164.234 566.415 164.729 565.588 165.083C564.765 165.432 563.772 165.606 562.609 165.606C561.456 165.606 560.451 165.429 559.596 165.076C558.744 164.723 558.079 164.199 557.6 163.506C557.126 162.809 556.877 161.946 556.854 160.918H559.777C559.809 161.397 559.947 161.797 560.188 162.118C560.435 162.434 560.763 162.674 561.172 162.837C561.586 162.995 562.053 163.074 562.574 163.074C563.086 163.074 563.53 163 563.907 162.851C564.288 162.702 564.583 162.495 564.792 162.23C565.002 161.965 565.106 161.66 565.106 161.316C565.106 160.995 565.011 160.725 564.82 160.507C564.634 160.288 564.36 160.102 563.997 159.949C563.639 159.795 563.2 159.656 562.679 159.53L561.123 159.14C559.919 158.847 558.968 158.389 558.27 157.765C557.573 157.142 557.226 156.303 557.231 155.247C557.226 154.382 557.456 153.626 557.921 152.98C558.391 152.334 559.035 151.829 559.854 151.466C560.672 151.104 561.602 150.922 562.644 150.922C563.704 150.922 564.63 151.104 565.42 151.466C566.215 151.829 566.834 152.334 567.276 152.98C567.718 153.626 567.945 154.375 567.959 155.226H565.064ZM575.83 154.689V156.921H569.377V154.689H575.83ZM570.842 152.122H573.814V162.111C573.814 162.386 573.856 162.6 573.939 162.753C574.023 162.902 574.139 163.006 574.288 163.067C574.442 163.127 574.618 163.158 574.818 163.158C574.958 163.158 575.097 163.146 575.237 163.123C575.376 163.095 575.483 163.074 575.558 163.06L576.025 165.271C575.876 165.318 575.667 165.371 575.397 165.432C575.128 165.497 574.8 165.536 574.414 165.55C573.698 165.578 573.07 165.483 572.53 165.264C571.995 165.046 571.579 164.706 571.282 164.246C570.984 163.785 570.837 163.204 570.842 162.502V152.122ZM582.533 165.613C581.431 165.613 580.483 165.39 579.687 164.943C578.897 164.492 578.288 163.855 577.86 163.032C577.432 162.204 577.218 161.225 577.218 160.095C577.218 158.993 577.432 158.026 577.86 157.193C578.288 156.361 578.89 155.712 579.666 155.247C580.448 154.782 581.364 154.55 582.415 154.55C583.122 154.55 583.78 154.664 584.389 154.891C585.003 155.115 585.538 155.452 585.993 155.903C586.454 156.354 586.812 156.921 587.068 157.605C587.323 158.284 587.451 159.079 587.451 159.991V160.807H578.404V158.965H584.654C584.654 158.537 584.561 158.158 584.375 157.828C584.189 157.498 583.931 157.24 583.601 157.054C583.275 156.863 582.896 156.768 582.464 156.768C582.013 156.768 581.613 156.872 581.264 157.082C580.92 157.286 580.65 157.563 580.455 157.912C580.259 158.256 580.159 158.64 580.155 159.063V160.814C580.155 161.344 580.252 161.802 580.448 162.188C580.648 162.574 580.929 162.872 581.292 163.081C581.654 163.29 582.085 163.395 582.582 163.395C582.912 163.395 583.215 163.348 583.489 163.255C583.763 163.162 583.998 163.023 584.194 162.837C584.389 162.651 584.538 162.423 584.64 162.153L587.389 162.334C587.249 162.995 586.963 163.572 586.531 164.064C586.103 164.553 585.549 164.934 584.87 165.208C584.196 165.478 583.417 165.613 582.533 165.613ZM589.391 165.404V154.689H592.223V156.58H592.348C592.572 155.952 592.944 155.456 593.464 155.094C593.985 154.731 594.608 154.55 595.334 154.55C596.069 154.55 596.694 154.733 597.21 155.101C597.727 155.463 598.071 155.956 598.243 156.58H598.354C598.573 155.966 598.968 155.475 599.54 155.108C600.117 154.736 600.798 154.55 601.584 154.55C602.584 154.55 603.396 154.868 604.019 155.505C604.646 156.138 604.96 157.035 604.96 158.198V165.404H601.996V158.784C601.996 158.189 601.838 157.742 601.521 157.445C601.205 157.147 600.81 156.998 600.335 156.998C599.796 156.998 599.375 157.17 599.073 157.514C598.771 157.854 598.619 158.303 598.619 158.861V165.404H595.738V158.721C595.738 158.196 595.587 157.777 595.285 157.465C594.987 157.154 594.594 156.998 594.106 156.998C593.776 156.998 593.478 157.082 593.213 157.249C592.953 157.412 592.746 157.642 592.592 157.94C592.439 158.233 592.362 158.577 592.362 158.972V165.404H589.391ZM610.279 159.209V165.404H607.308V154.689H610.14V156.58H610.265C610.503 155.956 610.9 155.463 611.458 155.101C612.016 154.733 612.693 154.55 613.488 154.55C614.232 154.55 614.881 154.712 615.434 155.038C615.988 155.363 616.418 155.828 616.725 156.433C617.032 157.033 617.185 157.749 617.185 158.582V165.404H614.214V159.112C614.218 158.456 614.051 157.944 613.711 157.577C613.372 157.205 612.905 157.019 612.309 157.019C611.909 157.019 611.556 157.105 611.249 157.277C610.947 157.449 610.71 157.7 610.537 158.03C610.37 158.356 610.284 158.749 610.279 159.209ZM624.41 165.613C623.308 165.613 622.36 165.39 621.564 164.943C620.774 164.492 620.165 163.855 619.737 163.032C619.309 162.204 619.095 161.225 619.095 160.095C619.095 158.993 619.309 158.026 619.737 157.193C620.165 156.361 620.767 155.712 621.543 155.247C622.325 154.782 623.241 154.55 624.292 154.55C624.999 154.55 625.657 154.664 626.266 154.891C626.88 155.115 627.415 155.452 627.87 155.903C628.331 156.354 628.689 156.921 628.945 157.605C629.2 158.284 629.328 159.079 629.328 159.991V160.807H620.281V158.965H626.531C626.531 158.537 626.438 158.158 626.252 157.828C626.066 157.498 625.808 157.24 625.478 157.054C625.152 156.863 624.773 156.768 624.341 156.768C623.89 156.768 623.49 156.872 623.141 157.082C622.797 157.286 622.527 157.563 622.332 157.912C622.136 158.256 622.036 158.64 622.032 159.063V160.814C622.032 161.344 622.129 161.802 622.325 162.188C622.525 162.574 622.806 162.872 623.169 163.081C623.532 163.29 623.962 163.395 624.459 163.395C624.789 163.395 625.092 163.348 625.366 163.255C625.641 163.162 625.875 163.023 626.071 162.837C626.266 162.651 626.415 162.423 626.517 162.153L629.266 162.334C629.126 162.995 628.84 163.572 628.408 164.064C627.98 164.553 627.426 164.934 626.747 165.208C626.073 165.478 625.294 165.613 624.41 165.613ZM640.183 157.744L637.462 157.912C637.416 157.679 637.316 157.47 637.162 157.284C637.009 157.093 636.806 156.942 636.555 156.831C636.309 156.714 636.013 156.656 635.669 156.656C635.209 156.656 634.821 156.754 634.504 156.949C634.188 157.14 634.03 157.396 634.03 157.717C634.03 157.972 634.132 158.189 634.337 158.365C634.542 158.542 634.893 158.684 635.39 158.791L637.329 159.181C638.371 159.395 639.148 159.74 639.659 160.214C640.171 160.688 640.427 161.311 640.427 162.083C640.427 162.786 640.22 163.402 639.806 163.932C639.397 164.462 638.834 164.876 638.118 165.174C637.406 165.467 636.585 165.613 635.655 165.613C634.237 165.613 633.107 165.318 632.265 164.727C631.428 164.132 630.937 163.323 630.793 162.3L633.716 162.146C633.804 162.579 634.018 162.909 634.358 163.137C634.697 163.36 635.132 163.472 635.662 163.472C636.183 163.472 636.602 163.372 636.918 163.172C637.239 162.967 637.402 162.704 637.406 162.383C637.402 162.114 637.288 161.893 637.064 161.721C636.841 161.544 636.497 161.409 636.032 161.316L634.176 160.946C633.13 160.737 632.351 160.374 631.84 159.858C631.333 159.342 631.079 158.684 631.079 157.884C631.079 157.196 631.265 156.603 631.637 156.105C632.014 155.608 632.542 155.224 633.221 154.954C633.904 154.684 634.704 154.55 635.62 154.55C636.974 154.55 638.039 154.836 638.815 155.408C639.597 155.98 640.052 156.759 640.183 157.744ZM651.213 157.744L648.492 157.912C648.446 157.679 648.346 157.47 648.192 157.284C648.039 157.093 647.837 156.942 647.586 156.831C647.339 156.714 647.044 156.656 646.7 156.656C646.239 156.656 645.851 156.754 645.535 156.949C645.218 157.14 645.06 157.396 645.06 157.717C645.06 157.972 645.163 158.189 645.367 158.365C645.572 158.542 645.923 158.684 646.421 158.791L648.36 159.181C649.402 159.395 650.178 159.74 650.69 160.214C651.201 160.688 651.457 161.311 651.457 162.083C651.457 162.786 651.25 163.402 650.836 163.932C650.427 164.462 649.864 164.876 649.148 165.174C648.437 165.467 647.616 165.613 646.686 165.613C645.267 165.613 644.137 165.318 643.295 164.727C642.458 164.132 641.968 163.323 641.824 162.3L644.746 162.146C644.835 162.579 645.049 162.909 645.388 163.137C645.728 163.36 646.163 163.472 646.693 163.472C647.214 163.472 647.632 163.372 647.948 163.172C648.269 162.967 648.432 162.704 648.437 162.383C648.432 162.114 648.318 161.893 648.095 161.721C647.872 161.544 647.527 161.409 647.062 161.316L645.207 160.946C644.16 160.737 643.382 160.374 642.87 159.858C642.363 159.342 642.11 158.684 642.11 157.884C642.11 157.196 642.296 156.603 642.668 156.105C643.044 155.608 643.572 155.224 644.251 154.954C644.935 154.684 645.735 154.55 646.651 154.55C648.004 154.55 649.069 154.836 649.846 155.408C650.627 155.98 651.083 156.759 651.213 157.744ZM541.339 186.781C540.776 186.781 540.263 186.644 539.798 186.369C539.332 186.09 538.96 185.718 538.681 185.253C538.407 184.788 538.27 184.274 538.27 183.712C538.27 183.144 538.407 182.63 538.681 182.17C538.96 181.705 539.332 181.335 539.798 181.061C540.263 180.782 540.776 180.642 541.339 180.642C541.907 180.642 542.42 180.782 542.881 181.061C543.346 181.335 543.716 181.705 543.99 182.17C544.269 182.63 544.408 183.144 544.408 183.712C544.408 184.274 544.269 184.788 543.99 185.253C543.716 185.718 543.346 186.09 542.881 186.369C542.42 186.644 541.907 186.781 541.339 186.781ZM562.379 189.404H557.314V175.118H562.421C563.858 175.118 565.095 175.404 566.132 175.976C567.169 176.543 567.966 177.359 568.524 178.424C569.087 179.489 569.368 180.763 569.368 182.247C569.368 183.735 569.087 185.014 568.524 186.083C567.966 187.153 567.164 187.974 566.118 188.546C565.076 189.118 563.83 189.404 562.379 189.404ZM560.335 186.816H562.253C563.146 186.816 563.897 186.658 564.506 186.341C565.12 186.021 565.581 185.525 565.888 184.856C566.199 184.181 566.355 183.312 566.355 182.247C566.355 181.191 566.199 180.328 565.888 179.659C565.581 178.989 565.123 178.496 564.513 178.18C563.904 177.864 563.153 177.706 562.26 177.706H560.335V186.816ZM571.55 189.404V178.689H574.522V189.404H571.55ZM573.043 177.308C572.601 177.308 572.222 177.161 571.906 176.868C571.594 176.571 571.439 176.215 571.439 175.801C571.439 175.392 571.594 175.041 571.906 174.748C572.222 174.45 572.601 174.301 573.043 174.301C573.485 174.301 573.861 174.45 574.173 174.748C574.489 175.041 574.647 175.392 574.647 175.801C574.647 176.215 574.489 176.571 574.173 176.868C573.861 177.161 573.485 177.308 573.043 177.308ZM582.664 178.689V180.921H576.051V178.689H582.664ZM577.565 189.404V177.915C577.565 177.138 577.716 176.494 578.018 175.983C578.325 175.471 578.744 175.087 579.274 174.832C579.804 174.576 580.406 174.448 581.081 174.448C581.536 174.448 581.953 174.483 582.329 174.552C582.711 174.622 582.994 174.685 583.18 174.741L582.65 176.973C582.534 176.936 582.39 176.901 582.218 176.868C582.05 176.836 581.878 176.82 581.702 176.82C581.264 176.82 580.96 176.922 580.788 177.127C580.616 177.327 580.53 177.608 580.53 177.971V189.404H577.565ZM590.242 178.689V180.921H583.629V178.689H590.242ZM585.142 189.404V177.915C585.142 177.138 585.293 176.494 585.596 175.983C585.903 175.471 586.321 175.087 586.851 174.832C587.382 174.576 587.984 174.448 588.658 174.448C589.114 174.448 589.53 174.483 589.907 174.552C590.288 174.622 590.572 174.685 590.758 174.741L590.228 176.973C590.111 176.936 589.967 176.901 589.795 176.868C589.628 176.836 589.456 176.82 589.279 176.82C588.842 176.82 588.537 176.922 588.365 177.127C588.193 177.327 588.107 177.608 588.107 177.971V189.404H585.142ZM596.556 189.613C595.454 189.613 594.506 189.39 593.71 188.943C592.92 188.492 592.31 187.855 591.883 187.032C591.455 186.204 591.241 185.225 591.241 184.095C591.241 182.993 591.455 182.026 591.883 181.193C592.31 180.361 592.913 179.712 593.689 179.247C594.471 178.782 595.387 178.55 596.438 178.55C597.145 178.55 597.803 178.664 598.412 178.891C599.026 179.115 599.561 179.452 600.016 179.903C600.477 180.354 600.835 180.921 601.091 181.605C601.346 182.284 601.474 183.079 601.474 183.991V184.807H592.427V182.965H598.677C598.677 182.537 598.584 182.158 598.398 181.828C598.212 181.498 597.954 181.24 597.624 181.054C597.298 180.863 596.919 180.768 596.487 180.768C596.036 180.768 595.636 180.872 595.287 181.082C594.943 181.286 594.673 181.563 594.478 181.912C594.282 182.256 594.182 182.64 594.178 183.063V184.814C594.178 185.344 594.275 185.802 594.471 186.188C594.671 186.574 594.952 186.872 595.315 187.081C595.677 187.29 596.108 187.395 596.605 187.395C596.935 187.395 597.238 187.348 597.512 187.255C597.786 187.162 598.021 187.023 598.217 186.837C598.412 186.651 598.561 186.423 598.663 186.153L601.411 186.334C601.272 186.995 600.986 187.572 600.553 188.064C600.126 188.553 599.572 188.934 598.893 189.208C598.219 189.478 597.44 189.613 596.556 189.613ZM603.414 189.404V178.689H606.294V180.559H606.406C606.601 179.894 606.929 179.391 607.39 179.052C607.85 178.708 608.38 178.536 608.98 178.536C609.129 178.536 609.289 178.545 609.461 178.564C609.634 178.582 609.785 178.608 609.915 178.64V181.277C609.775 181.235 609.582 181.198 609.336 181.165C609.089 181.133 608.864 181.117 608.659 181.117C608.222 181.117 607.831 181.212 607.487 181.403C607.148 181.589 606.878 181.849 606.678 182.184C606.483 182.519 606.385 182.905 606.385 183.342V189.404H603.414ZM615.836 189.613C614.733 189.613 613.785 189.39 612.989 188.943C612.199 188.492 611.59 187.855 611.162 187.032C610.734 186.204 610.52 185.225 610.52 184.095C610.52 182.993 610.734 182.026 611.162 181.193C611.59 180.361 612.192 179.712 612.969 179.247C613.75 178.782 614.666 178.55 615.717 178.55C616.424 178.55 617.082 178.664 617.691 178.891C618.305 179.115 618.84 179.452 619.296 179.903C619.756 180.354 620.114 180.921 620.37 181.605C620.626 182.284 620.753 183.079 620.753 183.991V184.807H611.706V182.965H617.956C617.956 182.537 617.863 182.158 617.677 181.828C617.491 181.498 617.233 181.24 616.903 181.054C616.577 180.863 616.198 180.768 615.766 180.768C615.315 180.768 614.915 180.872 614.566 181.082C614.222 181.286 613.952 181.563 613.757 181.912C613.561 182.256 613.461 182.64 613.457 183.063V184.814C613.457 185.344 613.554 185.802 613.75 186.188C613.95 186.574 614.231 186.872 614.594 187.081C614.957 187.29 615.387 187.395 615.884 187.395C616.215 187.395 616.517 187.348 616.791 187.255C617.066 187.162 617.3 187.023 617.496 186.837C617.691 186.651 617.84 186.423 617.942 186.153L620.691 186.334C620.551 186.995 620.265 187.572 619.833 188.064C619.405 188.553 618.851 188.934 618.172 189.208C617.498 189.478 616.719 189.613 615.836 189.613ZM625.664 183.209V189.404H622.693V178.689H625.525V180.58H625.65C625.888 179.956 626.285 179.463 626.843 179.101C627.401 178.733 628.078 178.55 628.873 178.55C629.617 178.55 630.266 178.712 630.819 179.038C631.373 179.363 631.803 179.828 632.11 180.433C632.417 181.033 632.57 181.749 632.57 182.582V189.404H629.599V183.112C629.603 182.456 629.436 181.944 629.096 181.577C628.757 181.205 628.29 181.019 627.694 181.019C627.294 181.019 626.941 181.105 626.634 181.277C626.332 181.449 626.095 181.7 625.922 182.03C625.755 182.356 625.669 182.749 625.664 183.209ZM640.612 178.689V180.921H634.159V178.689H640.612ZM635.624 176.122H638.596V186.111C638.596 186.386 638.637 186.6 638.721 186.753C638.805 186.902 638.921 187.006 639.07 187.067C639.223 187.127 639.4 187.158 639.6 187.158C639.74 187.158 639.879 187.146 640.019 187.123C640.158 187.095 640.265 187.074 640.34 187.06L640.807 189.271C640.658 189.318 640.449 189.371 640.179 189.432C639.909 189.497 639.581 189.536 639.196 189.55C638.479 189.578 637.852 189.483 637.312 189.264C636.777 189.046 636.361 188.706 636.063 188.246C635.766 187.785 635.619 187.204 635.624 186.502V176.122ZM642.547 189.404V178.689H645.519V189.404H642.547ZM644.04 177.308C643.598 177.308 643.219 177.161 642.903 176.868C642.592 176.571 642.436 176.215 642.436 175.801C642.436 175.392 642.592 175.041 642.903 174.748C643.219 174.45 643.598 174.301 644.04 174.301C644.482 174.301 644.859 174.45 645.17 174.748C645.486 175.041 645.645 175.392 645.645 175.801C645.645 176.215 645.486 176.571 645.17 176.868C644.859 177.161 644.482 177.308 644.04 177.308ZM650.955 189.606C650.271 189.606 649.662 189.488 649.127 189.25C648.592 189.009 648.169 188.653 647.858 188.183C647.551 187.709 647.397 187.118 647.397 186.411C647.397 185.816 647.506 185.316 647.725 184.911C647.944 184.507 648.241 184.181 648.618 183.935C648.995 183.688 649.422 183.502 649.901 183.377C650.385 183.251 650.892 183.163 651.422 183.112C652.045 183.047 652.548 182.986 652.929 182.93C653.31 182.87 653.587 182.782 653.759 182.665C653.931 182.549 654.017 182.377 654.017 182.149V182.107C654.017 181.665 653.878 181.324 653.599 181.082C653.324 180.84 652.934 180.719 652.427 180.719C651.892 180.719 651.466 180.838 651.15 181.075C650.834 181.307 650.625 181.6 650.522 181.954L647.774 181.731C647.913 181.079 648.188 180.517 648.597 180.042C649.006 179.563 649.534 179.196 650.181 178.94C650.832 178.68 651.585 178.55 652.441 178.55C653.036 178.55 653.606 178.619 654.15 178.759C654.698 178.898 655.184 179.115 655.608 179.408C656.035 179.701 656.373 180.077 656.619 180.538C656.866 180.993 656.989 181.54 656.989 182.177V189.404H654.171V187.918H654.087C653.915 188.253 653.685 188.548 653.396 188.804C653.108 189.055 652.762 189.253 652.357 189.397C651.952 189.536 651.485 189.606 650.955 189.606ZM651.806 187.555C652.243 187.555 652.629 187.469 652.964 187.297C653.299 187.12 653.561 186.883 653.752 186.586C653.943 186.288 654.038 185.951 654.038 185.574V184.437C653.945 184.498 653.817 184.553 653.654 184.605C653.496 184.651 653.317 184.695 653.117 184.737C652.917 184.774 652.717 184.809 652.517 184.842C652.317 184.87 652.136 184.895 651.973 184.918C651.625 184.97 651.32 185.051 651.059 185.163C650.799 185.274 650.597 185.425 650.453 185.616C650.308 185.802 650.236 186.035 650.236 186.314C650.236 186.718 650.383 187.027 650.676 187.241C650.973 187.451 651.35 187.555 651.806 187.555ZM664.993 178.689V180.921H658.541V178.689H664.993ZM660.006 176.122H662.978V186.111C662.978 186.386 663.019 186.6 663.103 186.753C663.187 186.902 663.303 187.006 663.452 187.067C663.605 187.127 663.782 187.158 663.982 187.158C664.122 187.158 664.261 187.146 664.401 187.123C664.54 187.095 664.647 187.074 664.721 187.06L665.189 189.271C665.04 189.318 664.831 189.371 664.561 189.432C664.291 189.497 663.963 189.536 663.577 189.55C662.861 189.578 662.233 189.483 661.694 189.264C661.159 189.046 660.743 188.706 660.445 188.246C660.148 187.785 660.001 187.204 660.006 186.502V176.122ZM666.929 189.404V178.689H669.901V189.404H666.929ZM668.422 177.308C667.98 177.308 667.601 177.161 667.285 176.868C666.973 176.571 666.818 176.215 666.818 175.801C666.818 175.392 666.973 175.041 667.285 174.748C667.601 174.45 667.98 174.301 668.422 174.301C668.864 174.301 669.241 174.45 669.552 174.748C669.868 175.041 670.026 175.392 670.026 175.801C670.026 176.215 669.868 176.571 669.552 176.868C669.241 177.161 668.864 177.308 668.422 177.308ZM677.123 189.613C676.039 189.613 675.102 189.383 674.311 188.922C673.525 188.457 672.918 187.811 672.491 186.983C672.063 186.151 671.849 185.186 671.849 184.088C671.849 182.981 672.063 182.014 672.491 181.186C672.918 180.354 673.525 179.708 674.311 179.247C675.102 178.782 676.039 178.55 677.123 178.55C678.206 178.55 679.141 178.782 679.927 179.247C680.717 179.708 681.327 180.354 681.754 181.186C682.182 182.014 682.396 182.981 682.396 184.088C682.396 185.186 682.182 186.151 681.754 186.983C681.327 187.811 680.717 188.457 679.927 188.922C679.141 189.383 678.206 189.613 677.123 189.613ZM677.136 187.311C677.629 187.311 678.041 187.172 678.371 186.893C678.701 186.609 678.95 186.223 679.118 185.735C679.29 185.246 679.376 184.691 679.376 184.067C679.376 183.444 679.29 182.888 679.118 182.4C678.95 181.912 678.701 181.526 678.371 181.242C678.041 180.959 677.629 180.817 677.136 180.817C676.639 180.817 676.22 180.959 675.881 181.242C675.546 181.526 675.293 181.912 675.12 182.4C674.953 182.888 674.869 183.444 674.869 184.067C674.869 184.691 674.953 185.246 675.12 185.735C675.293 186.223 675.546 186.609 675.881 186.893C676.22 187.172 676.639 187.311 677.136 187.311ZM687.3 183.209V189.404H684.328V178.689H687.161V180.58H687.286C687.523 179.956 687.921 179.463 688.479 179.101C689.037 178.733 689.714 178.55 690.509 178.55C691.253 178.55 691.902 178.712 692.455 179.038C693.009 179.363 693.439 179.828 693.746 180.433C694.053 181.033 694.206 181.749 694.206 182.582V189.404H691.234V183.112C691.239 182.456 691.072 181.944 690.732 181.577C690.393 181.205 689.925 181.019 689.33 181.019C688.93 181.019 688.577 181.105 688.27 181.277C687.967 181.449 687.73 181.7 687.558 182.03C687.391 182.356 687.305 182.749 687.3 183.209Z" fill="white"/>
<path d="M430.385 194.33C428.481 194.001 426.663 193.076 425.246 191.717C423.513 190.053 422.466 187.869 422.23 185.425C422.131 184.403 422.251 182.98 422.515 182.035C422.636 181.605 422.634 181.55 422.509 181.874C422.437 182.061 422.392 182.121 422.334 182.105C422.291 182.094 415.76 179.623 407.82 176.614C384.688 167.849 379.983 166.063 379.954 166.034C379.939 166.019 379.961 165.921 380.004 165.815C380.143 165.467 380.082 165.547 379.806 166.074C379.045 167.526 377.841 168.842 376.442 169.748C375.292 170.494 373.761 171.061 372.378 171.254C371.745 171.343 370.213 171.331 369.596 171.233C367.068 170.831 364.955 169.615 363.312 167.618C361.735 165.701 360.924 162.979 361.181 160.468C361.371 158.613 362.081 156.816 363.204 155.347C363.516 154.939 364.254 154.184 364.734 153.782C366.245 152.518 368.082 151.754 370.133 151.538C370.743 151.474 371.851 151.509 372.543 151.614C373.754 151.798 375.111 152.276 376.087 152.861C376.346 153.016 376.383 153.03 376.258 152.923C376.141 152.824 376.109 152.768 376.14 152.717C376.163 152.678 377.598 150.766 379.33 148.468C381.061 146.17 383.278 143.226 384.257 141.926C385.236 140.627 386.869 138.458 387.886 137.107C388.904 135.757 389.736 134.629 389.736 134.602C389.736 134.575 388.929 133.564 387.942 132.356C386.956 131.148 383.961 127.482 381.287 124.209L376.425 118.258L376.634 118.074C376.825 117.906 376.809 117.912 376.442 118.148C372.83 120.466 368.147 120.216 364.811 117.526C364.354 117.158 363.486 116.264 363.152 115.817C361.69 113.864 360.983 111.467 361.168 109.095C361.383 106.352 362.629 103.934 364.734 102.177C367.14 100.17 370.415 99.4262 373.453 100.196C374.797 100.537 375.955 101.089 377.056 101.913C377.844 102.504 378.865 103.608 379.393 104.442C379.62 104.8 379.734 104.907 379.588 104.624C379.518 104.49 379.519 104.476 379.596 104.436C379.642 104.412 380.753 103.882 382.065 103.258C385.594 101.582 421.274 84.5826 421.899 84.2803C422.04 84.2119 422.172 84.1559 422.191 84.1559C422.21 84.1559 422.262 84.2521 422.307 84.3696C422.451 84.7475 422.421 84.5705 422.256 84.0748C422.053 83.4602 421.875 82.6601 421.804 82.0331C421.732 81.3982 421.771 79.8817 421.875 79.3122C422.38 76.5237 423.871 74.2207 426.173 72.6766C427.355 71.8836 428.735 71.3511 430.243 71.1064C430.756 71.0231 432.578 71.0231 433.102 71.1064C437.506 71.8067 440.867 75.2022 441.49 79.5814C441.571 80.1526 441.583 81.5468 441.511 82.1252C441.414 82.9125 441.309 83.3409 440.928 84.5104C440.911 84.5624 440.948 84.503 441.01 84.3784C441.073 84.2538 441.135 84.1402 441.149 84.126C441.164 84.1118 442.171 84.568 443.388 85.1399C445.444 86.1057 451.594 88.9936 463.913 94.7772C466.681 96.0768 471.912 98.5329 475.538 100.235C479.163 101.938 482.683 103.589 483.358 103.906C484.034 104.222 484.605 104.498 484.626 104.52C484.648 104.542 484.621 104.646 484.567 104.752C484.392 105.095 484.463 105.023 484.741 104.574C485.306 103.663 486.322 102.549 487.172 101.912C488.491 100.923 490.05 100.261 491.65 100.011C494.11 99.628 496.731 100.225 498.764 101.631C501.192 103.31 502.737 105.921 503.037 108.847L503.075 109.225L503.082 108.93L503.088 108.635L512.477 108.623L521.866 108.611L520.876 107.87C520.331 107.462 519.839 107.066 519.783 106.989C519.629 106.782 519.517 106.394 519.544 106.162C519.636 105.344 520.526 104.857 521.244 105.232C521.584 105.409 526.312 109 526.419 109.162C526.584 109.412 526.648 109.769 526.581 110.06C526.55 110.194 526.48 110.377 526.425 110.466C526.358 110.574 525.493 111.252 523.872 112.469C522.523 113.481 521.338 114.351 521.239 114.403C520.791 114.636 520.241 114.544 519.88 114.176C519.478 113.764 519.427 113.169 519.755 112.688C519.825 112.585 520.287 112.203 520.87 111.766L521.866 111.021L512.477 111.009L503.088 110.997L503.081 110.702L503.075 110.407L503.037 110.8C502.948 111.725 502.664 112.817 502.276 113.734C501.245 116.165 499.117 118.192 496.64 119.103C494.148 120.019 491.507 119.932 489.076 118.854C488.669 118.673 488.041 118.324 487.588 118.026L487.375 117.886L487.584 118.071L487.793 118.257L484.089 122.791C482.052 125.284 479.017 128.999 477.344 131.046C475.381 133.449 474.316 134.788 474.339 134.826C474.358 134.859 475.642 136.544 477.192 138.571C478.742 140.599 481.803 144.607 483.995 147.479C486.186 150.351 488.001 152.728 488.028 152.762C488.062 152.806 488.05 152.841 487.985 152.886C487.678 153.102 487.718 153.114 488.06 152.909C490.69 151.341 493.963 151.068 496.782 152.183C499.91 153.42 502.216 156.155 502.876 159.413C502.94 159.727 503.011 160.163 503.034 160.382C503.072 160.755 503.076 160.763 503.082 160.51L503.088 160.238L512.477 160.226L521.866 160.214L520.876 159.473C520.331 159.065 519.839 158.669 519.783 158.593C519.629 158.385 519.517 157.998 519.544 157.765C519.636 156.948 520.526 156.461 521.244 156.835C521.584 157.013 526.312 160.603 526.419 160.765C526.584 161.016 526.648 161.372 526.581 161.664C526.55 161.798 526.48 161.981 526.425 162.07C526.358 162.177 525.493 162.856 523.872 164.072C522.523 165.084 521.338 165.955 521.239 166.006C520.791 166.24 520.241 166.148 519.88 165.779C519.478 165.368 519.427 164.773 519.755 164.291C519.825 164.188 520.287 163.807 520.87 163.37L521.866 162.625L512.477 162.613L503.088 162.601L503.081 162.305C503.075 162.019 503.074 162.022 503.035 162.425C502.72 165.693 500.64 168.736 497.7 170.231C497.367 170.4 496.93 170.602 496.729 170.68C494.624 171.49 492.258 171.548 490.054 170.841C489.323 170.607 488.163 170.022 487.471 169.54C486.225 168.671 485.048 167.325 484.357 165.98C484.131 165.54 484.082 165.483 484.215 165.815C484.257 165.921 484.281 166.018 484.268 166.031C484.233 166.066 483.539 166.331 476.861 168.862C473.547 170.118 465.158 173.297 458.218 175.927C443.966 181.328 441.994 182.074 441.884 182.105C441.826 182.121 441.782 182.062 441.71 181.874C441.586 181.552 441.583 181.604 441.7 182.027C441.917 182.81 442.003 183.512 442.005 184.528C442.008 185.603 441.941 186.165 441.706 187.06C440.896 190.138 438.681 192.636 435.724 193.805C435.1 194.052 434.534 194.206 433.771 194.336C433.189 194.435 432.951 194.451 432.07 194.448C431.212 194.445 430.939 194.426 430.385 194.33V194.33ZM433.539 191.992C435.086 191.676 436.447 190.929 437.547 189.79C438.327 188.982 438.873 188.104 439.233 187.079C440.64 183.077 438.509 178.736 434.477 177.39C433.736 177.143 433.22 177.056 432.322 177.027C430.373 176.965 428.599 177.598 427.137 178.876C423.81 181.784 423.676 186.902 426.847 189.965C428.409 191.473 430.267 192.183 432.459 192.108C432.8 192.097 433.276 192.045 433.539 191.992ZM423.766 179.188C424.009 178.803 424.463 178.227 424.899 177.748C425.145 177.477 425.248 177.341 425.14 177.429C425.037 177.512 424.938 177.581 424.92 177.581C424.887 177.581 424.033 176.537 409.733 159.033C405.062 153.315 401.216 148.643 401.187 148.652C401.13 148.668 388.485 154.568 383.601 156.858C382.016 157.601 380.673 158.221 380.618 158.235C380.532 158.257 380.503 158.227 380.433 158.043C380.286 157.657 380.318 157.839 380.487 158.349C380.784 159.244 380.979 160.447 380.978 161.389C380.978 162.198 380.888 162.887 380.627 164.066C380.613 164.131 380.636 164.103 380.679 164.004C380.736 163.873 380.777 163.833 380.832 163.855C381.116 163.97 400.647 171.374 413.49 176.236C418.832 178.258 423.209 179.918 423.219 179.926C423.228 179.933 423.215 179.999 423.188 180.071C423.162 180.144 423.125 180.246 423.107 180.298C423.089 180.35 423.199 180.169 423.352 179.897C423.506 179.624 423.691 179.305 423.766 179.188ZM441.056 180.141C441.014 180.032 440.987 179.936 440.998 179.928C441.008 179.919 441.878 179.588 442.931 179.191C445.209 178.333 481.086 164.74 482.484 164.205L483.453 163.835L483.537 164.009C483.583 164.105 483.609 164.144 483.595 164.095C483.506 163.786 483.331 162.781 483.289 162.341C483.163 161.001 483.321 159.586 483.733 158.35C483.901 157.846 483.934 157.653 483.787 158.04C483.742 158.157 483.682 158.253 483.653 158.253C483.625 158.253 483.334 158.128 483.007 157.975C481.294 157.172 469.473 151.647 466.512 150.264C464.627 149.384 463.061 148.658 463.032 148.651C462.984 148.638 461.597 150.313 458.073 154.638C457.501 155.34 454.367 159.178 451.107 163.168C447.847 167.157 443.895 171.995 442.325 173.919C440.755 175.842 439.431 177.457 439.383 177.507C439.296 177.598 439.292 177.597 439.093 177.438C438.948 177.324 439.005 177.403 439.292 177.717C439.997 178.488 440.434 179.097 440.884 179.937C441.009 180.17 441.117 180.356 441.123 180.35C441.129 180.344 441.099 180.25 441.056 180.141ZM425.47 177.203C425.517 177.151 425.545 177.108 425.532 177.108C425.519 177.108 425.47 177.151 425.423 177.203C425.376 177.255 425.348 177.297 425.361 177.297C425.374 177.297 425.423 177.255 425.47 177.203ZM426.256 176.553C426.314 176.478 426.313 176.477 426.238 176.535C426.159 176.597 426.134 176.636 426.173 176.636C426.183 176.636 426.22 176.599 426.256 176.553ZM427.738 175.669C428.658 175.216 429.491 174.95 430.576 174.762C431.26 174.643 432.937 174.643 433.645 174.762C435.045 174.996 436.237 175.444 437.426 176.183C437.759 176.39 437.811 176.412 437.664 176.285C437.489 176.134 437.481 176.117 437.551 176.037C437.592 175.989 439.482 173.675 441.752 170.894C444.022 168.113 448.389 162.765 451.455 159.009C454.522 155.254 457.839 151.192 458.826 149.984C459.812 148.775 460.659 147.742 460.707 147.688C460.795 147.589 460.795 147.589 459.625 147.042C445.456 140.42 440.644 138.167 440.624 138.147C440.616 138.138 440.642 138.066 440.683 137.987C440.843 137.678 440.742 137.79 440.435 138.264C439.614 139.531 438.423 140.669 437.095 141.457C436.097 142.048 434.984 142.443 433.677 142.67C432.816 142.819 431.353 142.816 430.488 142.664C429.095 142.42 427.983 141.993 426.807 141.253C426.132 140.827 425.663 140.449 425.082 139.862C424.497 139.271 424.207 138.915 423.784 138.267C423.473 137.791 423.38 137.686 423.536 137.987C423.577 138.066 423.603 138.139 423.593 138.148C423.564 138.178 418.641 140.483 406.746 146.038L403.429 147.587L403.82 148.065C404.035 148.327 405.879 150.584 407.916 153.079C409.954 155.574 413.983 160.507 416.87 164.042C419.757 167.577 423.126 171.702 424.356 173.21C425.586 174.717 426.626 175.989 426.667 176.036C426.736 176.115 426.726 176.134 426.531 176.307C426.34 176.475 426.357 176.468 426.722 176.232C426.943 176.088 427.4 175.835 427.738 175.669V175.669ZM372.358 168.866C374.871 168.421 377.011 166.724 377.995 164.397C379 162.019 378.759 159.359 377.348 157.237C375.423 154.343 371.77 153.137 368.487 154.311C366.614 154.981 365.033 156.427 364.198 158.234C363.367 160.032 363.275 162.101 363.942 163.971C364.588 165.783 365.965 167.332 367.676 168.173C368.55 168.603 369.339 168.838 370.228 168.934C370.727 168.987 371.879 168.951 372.358 168.866ZM494.016 168.931C496.449 168.628 498.505 167.276 499.723 165.176C500.948 163.063 501.044 160.371 499.973 158.146C498.174 154.409 493.723 152.829 489.935 154.583C488.387 155.3 487.034 156.662 486.307 158.234C485.477 160.032 485.384 162.101 486.051 163.971C486.697 165.783 488.074 167.332 489.785 168.173C490.917 168.729 491.872 168.955 493.165 168.974C493.413 168.977 493.796 168.958 494.016 168.931ZM379.632 156.316C379.589 156.233 379.561 156.158 379.569 156.15C379.578 156.141 381.105 155.423 382.963 154.553C386.444 152.925 397.316 147.841 398.806 147.145C399.267 146.93 399.645 146.737 399.645 146.716C399.645 146.67 391.379 136.546 391.324 136.524C391.303 136.516 390.802 137.154 390.211 137.942C389.62 138.73 388.102 140.746 386.839 142.423C385.575 144.099 383.077 147.416 381.288 149.794C379.499 152.173 378.018 154.137 377.997 154.16C377.977 154.183 377.869 154.132 377.756 154.045C377.644 153.959 377.78 154.121 378.059 154.405C378.635 154.993 379.061 155.52 379.427 156.098C379.677 156.494 379.781 156.604 379.632 156.316ZM485.309 155.35C485.43 155.193 485.784 154.798 486.097 154.474C486.422 154.138 486.569 153.963 486.438 154.067C486.313 154.167 486.193 154.23 486.172 154.207C486.151 154.184 485.192 152.932 484.041 151.425C481.525 148.13 473.693 137.879 473.148 137.168L472.76 136.662L468.679 141.655C466.434 144.401 464.592 146.671 464.584 146.699C464.577 146.728 465.725 147.29 467.136 147.949C470.049 149.309 482.433 155.101 483.759 155.723C484.239 155.948 484.639 156.14 484.649 156.149C484.658 156.158 484.631 156.23 484.591 156.309C484.437 156.606 484.526 156.511 484.803 156.082C484.961 155.837 485.189 155.508 485.309 155.35ZM406.14 143.716C408.454 142.634 413.093 140.465 416.449 138.896C419.804 137.327 422.572 136.043 422.6 136.043C422.628 136.043 422.687 136.139 422.732 136.257C422.88 136.644 422.846 136.45 422.678 135.947C422.27 134.723 422.11 133.281 422.234 131.955C422.274 131.532 422.446 130.553 422.544 130.191C422.555 130.148 422.531 130.187 422.489 130.278C422.447 130.369 422.407 130.449 422.4 130.457C422.393 130.464 417.736 128.713 412.052 126.564C402.279 122.871 401.713 122.663 401.654 122.747C401.62 122.795 399.613 125.461 397.193 128.671C394.773 131.881 392.802 134.531 392.813 134.561C392.824 134.59 394.455 136.6 396.437 139.026C398.42 141.453 400.455 143.944 400.959 144.561C401.463 145.178 401.888 145.683 401.904 145.683C401.919 145.683 403.825 144.798 406.14 143.716ZM466.188 140.976C468.302 138.387 470.249 136.005 470.513 135.683C470.777 135.361 471.059 135.014 471.139 134.913L471.285 134.729L470.706 133.972C470.387 133.556 468.341 130.874 466.157 128.013C462.934 123.788 462.17 122.814 462.093 122.827C462.041 122.837 457.461 124.56 451.915 126.657C446.369 128.754 441.826 130.464 441.819 130.457C441.812 130.449 441.772 130.369 441.73 130.278C441.688 130.187 441.665 130.153 441.679 130.202C441.765 130.504 441.94 131.514 441.983 131.952C442.11 133.258 441.965 134.602 441.562 135.861C441.375 136.445 441.335 136.653 441.487 136.257C441.532 136.139 441.592 136.043 441.621 136.043C441.65 136.043 442.589 136.471 443.708 136.994C449.728 139.808 458.428 143.877 460.227 144.719C461.357 145.248 462.296 145.682 462.313 145.682C462.33 145.683 464.073 143.565 466.188 140.976ZM433.587 140.297C436.287 139.727 438.421 137.833 439.291 135.236C439.983 133.17 439.701 130.779 438.545 128.916C438.185 128.337 437.907 127.991 437.398 127.49C435.139 125.266 431.786 124.695 428.88 126.041C427.357 126.746 425.977 128.122 425.279 129.633C423.9 132.618 424.508 135.982 426.843 138.288C428.021 139.451 429.629 140.213 431.282 140.391C431.889 140.456 433.058 140.408 433.587 140.297ZM477.479 127.159C479.93 124.157 482.827 120.606 483.918 119.267C485.008 117.929 485.917 116.815 485.938 116.792C485.958 116.769 486.099 116.853 486.25 116.98C486.462 117.158 486.411 117.091 486.028 116.691C485.298 115.925 484.779 115.206 484.354 114.371C484.133 113.937 484.081 113.878 484.215 114.212C484.257 114.317 484.284 114.411 484.274 114.42C484.264 114.429 479.823 116.111 474.403 118.158C468.984 120.204 464.535 121.892 464.516 121.909C464.498 121.926 464.807 122.364 465.203 122.883C465.6 123.403 467.474 125.855 469.367 128.332L472.81 132.837L472.916 132.727C472.975 132.667 475.028 130.161 477.479 127.159ZM391.76 131.965C392.037 131.596 393.871 129.158 395.837 126.547C398.256 123.333 399.391 121.79 399.35 121.769C399.317 121.751 394.935 120.092 389.612 118.081C381.993 115.203 379.938 114.41 379.954 114.353C379.966 114.314 379.99 114.239 380.008 114.187C380.026 114.135 379.973 114.21 379.89 114.352C379.42 115.159 379.272 115.391 378.995 115.762C378.827 115.987 378.476 116.394 378.215 116.666C377.873 117.023 377.811 117.103 377.991 116.955C378.129 116.843 378.249 116.759 378.258 116.768C378.29 116.803 386.847 127.283 389.006 129.933C390.218 131.42 391.22 132.636 391.233 132.636C391.246 132.635 391.483 132.334 391.76 131.965ZM423.878 127.336C424.625 126.232 425.739 125.161 426.873 124.456C430.128 122.434 434.316 122.471 437.497 124.55C438.132 124.965 438.499 125.261 439.051 125.802C439.757 126.495 440.255 127.145 440.797 128.08C440.962 128.366 441.083 128.558 441.064 128.506C441.045 128.454 441.021 128.379 441.009 128.339C440.987 128.263 441.174 128.192 455.241 122.879C458.178 121.77 460.596 120.849 460.613 120.833C460.631 120.816 460.142 120.144 459.525 119.338C458.909 118.532 456.439 115.3 454.036 112.155C451.633 109.01 446.77 102.646 443.228 98.0128C439.686 93.3795 436.788 89.5746 436.788 89.5575C436.788 89.5403 436.857 89.4642 436.941 89.3882C437.058 89.2831 437.067 89.2665 436.977 89.3187C435.547 90.1509 434.494 90.539 433.094 90.7492C432.477 90.8419 430.881 90.8408 430.223 90.7472C428.996 90.5728 427.473 90.0243 426.48 89.3986C426.208 89.2272 426.222 89.2606 426.524 89.4987L426.634 89.5849L424.324 92.6474C423.053 94.3318 419.348 99.2506 416.09 103.578C412.831 107.906 408.616 113.503 406.723 116.016C404.83 118.53 403.271 120.614 403.258 120.647C403.242 120.691 406.142 121.807 413.23 124.485C418.727 126.563 423.225 128.277 423.225 128.296C423.225 128.314 423.193 128.405 423.154 128.498C423.012 128.838 423.092 128.73 423.358 128.222C423.508 127.936 423.742 127.538 423.878 127.336ZM465.428 119.027C466.739 118.531 471.129 116.875 475.183 115.345C479.238 113.816 482.755 112.488 482.999 112.394C483.243 112.301 483.448 112.23 483.455 112.237C483.462 112.244 483.502 112.324 483.543 112.415C483.594 112.525 483.61 112.541 483.592 112.462C483.278 111.082 483.193 110.174 483.278 109.095C483.343 108.264 483.512 107.396 483.739 106.723C483.908 106.225 483.927 106.09 483.782 106.425C483.734 106.536 483.69 106.633 483.685 106.641C483.671 106.663 482.993 106.346 466.819 98.7471C465.103 97.9413 462.498 96.7184 461.03 96.0296C459.562 95.3409 454.671 93.0443 450.161 90.926C445.652 88.8077 441.554 86.8828 441.055 86.6485L440.148 86.2223L440.24 86.0416C440.407 85.7135 440.336 85.7827 440.048 86.2281C439.597 86.9258 439.214 87.4017 438.656 87.9599C438.371 88.2457 438.2 88.4311 438.277 88.3718C438.523 88.1832 438.633 88.1121 438.65 88.1308C438.667 88.151 443.001 93.8235 452.311 106.012C455.686 110.43 459.459 115.369 460.695 116.987C461.932 118.605 462.967 119.929 462.994 119.929C463.022 119.929 464.118 119.523 465.428 119.027ZM404.561 114.967C406.545 112.329 409.33 108.629 410.75 106.744C412.17 104.86 415.381 100.596 417.885 97.2694C424.3 88.7468 424.736 88.1727 424.784 88.1727C424.807 88.1727 424.839 88.1929 424.854 88.2177C424.87 88.2425 424.951 88.311 425.034 88.3699C425.118 88.4289 424.963 88.2544 424.689 87.9823C424.158 87.4537 423.712 86.906 423.338 86.3242C423.211 86.1263 423.081 85.9243 423.048 85.8753C423.016 85.8263 423.036 85.8873 423.093 86.0107C423.158 86.1515 423.18 86.2514 423.152 86.2787C423.127 86.3026 418.386 88.5702 412.616 91.3177C406.846 94.0652 401.169 96.7697 399.999 97.3277C398.829 97.8857 395.204 99.6138 391.942 101.168C388.68 102.722 384.781 104.581 383.277 105.298C381.774 106.016 380.538 106.602 380.532 106.602C380.525 106.602 380.482 106.517 380.435 106.413C380.338 106.199 380.285 106.185 380.368 106.395C380.397 106.47 380.492 106.769 380.578 107.059C381.022 108.552 381.088 110.233 380.766 111.829C380.702 112.144 380.638 112.442 380.624 112.491C380.61 112.54 380.633 112.506 380.675 112.415C380.717 112.324 380.757 112.244 380.763 112.237C380.77 112.23 381.762 112.598 382.968 113.056C384.174 113.513 388.574 115.175 392.745 116.748C396.917 118.322 400.457 119.658 400.613 119.718C400.769 119.777 400.909 119.812 400.925 119.795C400.941 119.777 402.577 117.605 404.561 114.967ZM372.358 117.263C374.511 116.881 376.374 115.603 377.528 113.715C379.41 110.638 378.779 106.548 376.053 104.149C373.79 102.158 370.584 101.702 367.825 102.98C366.303 103.685 364.923 105.062 364.225 106.572C362.846 109.557 363.453 112.922 365.788 115.227C366.967 116.39 368.573 117.152 370.228 117.33C370.727 117.384 371.879 117.347 372.358 117.263ZM494.016 117.327C496.396 117.031 498.395 115.747 499.638 113.715C501.52 110.638 500.889 106.548 498.162 104.149C495.902 102.16 492.691 101.704 489.935 102.98C488.412 103.685 487.032 105.062 486.334 106.572C484.955 109.557 485.563 112.922 487.897 115.227C489.125 116.439 490.803 117.207 492.526 117.346C492.972 117.382 493.644 117.373 494.016 117.327ZM433.069 88.3635C434.752 88.0315 436.194 87.2071 437.32 85.9316C438.301 84.8206 438.946 83.4294 439.151 81.9821C439.228 81.4372 439.219 80.3042 439.134 79.7832C438.853 78.0705 438.125 76.6842 436.876 75.4844C435.85 74.4989 434.687 73.8759 433.243 73.539C432.553 73.3779 431.309 73.3356 430.597 73.4491C429.668 73.5973 429.068 73.7902 428.228 74.2111C426.677 74.989 425.348 76.4242 424.687 78.0363C424.464 78.5784 424.251 79.3663 424.168 79.9524C424.084 80.5438 424.134 81.8772 424.263 82.4724C424.814 85.0217 426.61 87.1182 429.003 88.004C430.306 88.4864 431.783 88.6169 433.069 88.3635ZM354.799 167.243C354.391 167.086 354.042 166.592 354.043 166.172C354.043 165.948 354.133 165.667 354.265 165.473C354.335 165.37 354.796 164.988 355.38 164.551L356.375 163.806L346.986 163.794L337.597 163.782V162.601V161.42L346.986 161.408L356.375 161.396L355.385 160.654C354.841 160.247 354.349 159.85 354.293 159.774C354.139 159.566 354.027 159.179 354.053 158.947C354.145 158.129 355.036 157.642 355.754 158.017C356.094 158.194 360.821 161.784 360.928 161.947C361.093 162.197 361.158 162.554 361.091 162.845C361.06 162.979 360.989 163.162 360.934 163.251C360.868 163.359 360.003 164.037 358.381 165.254C357.033 166.266 355.845 167.137 355.743 167.191C355.487 167.324 355.068 167.347 354.799 167.243ZM354.799 115.64C354.391 115.482 354.042 114.988 354.043 114.569C354.043 114.345 354.133 114.063 354.265 113.869C354.335 113.766 354.796 113.385 355.38 112.948L356.375 112.202L346.986 112.19L337.597 112.178V110.997V109.816L346.986 109.804L356.375 109.792L355.385 109.051C354.841 108.643 354.349 108.247 354.293 108.171C354.139 107.963 354.027 107.576 354.053 107.343C354.145 106.526 355.036 106.039 355.754 106.413C356.094 106.59 360.821 110.181 360.928 110.343C361.093 110.594 361.158 110.95 361.091 111.241C361.06 111.376 360.989 111.559 360.934 111.648C360.868 111.755 360.003 112.434 358.381 113.65C357.033 114.662 355.845 115.534 355.743 115.587C355.487 115.721 355.068 115.744 354.799 115.64Z" fill="white"/>
</svg>
