<svg width="364" height="319" viewBox="0 0 364 319" fill="none" xmlns="http://www.w3.org/2000/svg">
<rect x="152.951" y="34.8334" width="91.9729" height="91.9742" rx="33.8896" fill="#001129" stroke="#0069B4" stroke-width="6.96362"/>
<ellipse cx="207.956" cy="94.3519" rx="20.5892" ry="19.8475" fill="#393939"/>
<path d="M183.519 0.476562C183.519 0.476562 183.519 19.528 199.432 19.528C214.35 19.528 214.35 0.476562 214.35 0.476562" stroke="#C6C6C6" stroke-width="7.54592" stroke-miterlimit="10"/>
<path d="M198.437 19.5286V49.8153" stroke="#C6C6C6" stroke-width="7.99756" stroke-miterlimit="10"/>
<rect x="328.963" y="223.352" width="91.9729" height="91.9742" rx="33.8896" transform="rotate(90 328.963 223.352)" fill="#290000" stroke="#BE3C52" stroke-width="6.96362"/>
<ellipse cx="269.444" cy="278.357" rx="20.5892" ry="19.8475" transform="rotate(90 269.444 278.357)" fill="#393939"/>
<path d="M363.32 254.421C363.32 254.421 344.268 254.421 344.268 270.333C344.268 285.252 363.32 285.252 363.32 285.252" stroke="#C6C6C6" stroke-width="7.54592" stroke-miterlimit="10"/>
<path d="M344.268 269.338L313.981 269.338" stroke="#C6C6C6" stroke-width="7.99756" stroke-miterlimit="10"/>
<path d="M162.647 193.678C126.006 203.4 92.5652 180.719 88.0418 143.085C87.8835 141.768 86.7516 141 85.4693 141.34C84.187 141.681 83.3039 142.983 83.4623 144.3C88.2968 184.523 124.056 208.774 163.214 198.384C164.496 198.045 165.38 196.742 165.221 195.425C165.063 194.108 163.931 193.339 162.649 193.679L162.647 193.678Z" fill="#0069B4"/>
<path d="M160.951 179.565C131.915 187.27 105.364 169.265 101.78 139.438C101.621 138.121 100.489 137.354 99.207 137.694C97.9247 138.034 97.0405 139.337 97.1988 140.654C101.095 173.068 129.96 192.644 161.517 184.271C162.799 183.931 163.682 182.629 163.524 181.311C163.366 179.994 162.234 179.227 160.951 179.567L160.951 179.565Z" fill="#0069B4"/>
<path d="M159.254 165.452C137.775 171.152 118.172 157.857 115.52 135.794C115.362 134.477 114.23 133.709 112.948 134.049C111.665 134.39 110.782 135.692 110.941 137.009C113.904 161.661 135.822 176.525 159.822 170.158C161.104 169.817 161.987 168.515 161.829 167.198C161.67 165.881 160.539 165.113 159.256 165.453L159.254 165.452Z" fill="#0069B4"/>
<path d="M157.558 151.338C143.681 155.02 130.972 146.402 129.259 132.147C129.101 130.83 127.969 130.062 126.687 130.403C125.404 130.743 124.521 132.045 124.679 133.362C126.704 150.204 141.728 160.393 158.124 156.042C159.406 155.702 160.289 154.4 160.131 153.083C159.972 151.767 158.84 150.998 157.558 151.338L157.558 151.338Z" fill="#0069B4"/>
<path d="M155.862 137.227C149.542 138.904 143.778 134.996 142.998 128.503C142.84 127.186 141.708 126.418 140.425 126.759C139.144 127.098 138.26 128.401 138.418 129.718C139.51 138.798 147.588 144.276 156.427 141.931C157.709 141.591 158.593 140.288 158.434 138.971C158.276 137.654 157.144 136.886 155.862 137.227L155.862 137.227Z" fill="#0069B4"/>
<path d="M190.032 224.121C216.772 250.991 213.85 291.293 183.519 314.027C182.458 314.823 182.359 316.187 183.295 317.127C184.23 318.068 185.8 318.181 186.861 317.386C219.278 293.087 222.4 249.994 193.823 221.277C192.889 220.336 191.319 220.222 190.258 221.018C189.196 221.814 189.096 223.178 190.032 224.119L190.032 224.121Z" fill="#00890E"/>
<path d="M178.658 232.646C199.848 253.94 197.531 285.935 173.493 303.953C172.431 304.749 172.332 306.113 173.268 307.053C174.204 307.994 175.774 308.108 176.836 307.312C202.959 287.731 205.48 252.945 182.45 229.803C181.515 228.862 179.945 228.749 178.884 229.544C177.822 230.34 177.723 231.704 178.659 232.645L178.658 232.646Z" fill="#00890E"/>
<path d="M167.284 241.171C182.96 256.924 181.248 280.547 163.466 293.875C162.404 294.671 162.306 296.035 163.242 296.975C164.177 297.916 165.747 298.029 166.808 297.234C186.676 282.342 188.59 255.927 171.075 238.327C170.14 237.387 168.57 237.273 167.509 238.069C166.447 238.865 166.348 240.229 167.284 241.169L167.284 241.171Z" fill="#00890E"/>
<path d="M155.909 249.697C166.036 259.874 164.927 275.19 153.438 283.8C152.377 284.596 152.278 285.96 153.214 286.901C154.15 287.841 155.719 287.955 156.781 287.159C170.354 276.985 171.665 258.879 159.7 246.856C158.764 245.915 157.195 245.801 156.133 246.597C155.073 247.392 154.973 248.757 155.909 249.697L155.909 249.697Z" fill="#00890E"/>
<path d="M144.536 258.222C149.148 262.857 148.646 269.802 143.413 273.724C142.351 274.52 142.253 275.884 143.188 276.824C144.123 277.764 145.693 277.878 146.755 277.083C154.073 271.598 154.778 261.863 148.327 255.38C147.391 254.44 145.822 254.326 144.761 255.122C143.699 255.918 143.6 257.282 144.536 258.222L144.536 258.222Z" fill="#00890E"/>
<path d="M199.27 187.607C209.171 151.015 245.534 133.395 280.388 148.294C281.608 148.816 282.839 148.22 283.185 146.939C283.532 145.658 282.845 144.242 281.625 143.721C244.374 127.796 205.493 146.639 194.912 185.746C194.564 187.026 195.25 188.442 196.47 188.963C197.69 189.485 198.922 188.889 199.268 187.608L199.27 187.607Z" fill="#BE3C52"/>
<path d="M212.34 193.195C220.186 164.197 249.054 150.206 276.677 162.015C277.897 162.536 279.127 161.94 279.474 160.659C279.82 159.379 279.135 157.962 277.915 157.44C247.895 144.607 216.509 159.817 207.982 191.332C207.635 192.613 208.322 194.029 209.541 194.55C210.761 195.072 211.992 194.475 212.339 193.195L212.34 193.195Z" fill="#BE3C52"/>
<path d="M225.41 198.783C231.215 177.331 252.529 167.002 272.963 175.737C274.182 176.259 275.413 175.662 275.76 174.381C276.106 173.101 275.42 171.685 274.2 171.163C251.37 161.403 227.537 172.953 221.052 196.921C220.705 198.202 221.392 199.618 222.611 200.139C223.831 200.661 225.062 200.064 225.408 198.784L225.41 198.783Z" fill="#BE3C52"/>
<path d="M238.482 204.371C242.232 190.512 256.05 183.815 269.251 189.458C270.471 189.98 271.702 189.383 272.048 188.103C272.395 186.822 271.709 185.406 270.489 184.885C254.891 178.217 238.556 186.134 234.125 202.508C233.779 203.789 234.465 205.205 235.685 205.726C236.904 206.247 238.135 205.651 238.482 204.371L238.482 204.371Z" fill="#BE3C52"/>
<path d="M251.551 209.958C253.259 203.646 259.525 200.608 265.538 203.179C266.758 203.7 267.988 203.104 268.335 201.823C268.681 200.544 267.995 199.127 266.775 198.605C258.366 195.011 249.583 199.267 247.195 208.095C246.848 209.376 247.534 210.792 248.754 211.313C249.974 211.835 251.205 211.238 251.551 209.957L251.551 209.958Z" fill="#BE3C52"/>
<rect x="34.569" y="302.517" width="91.9729" height="91.9742" rx="33.8896" transform="rotate(-90 34.569 302.517)" fill="#002729" stroke="#00890E" stroke-width="6.96362"/>
<ellipse cx="94.0873" cy="243.225" rx="22.0984" ry="19.8475" transform="rotate(-90 94.0873 243.225)" fill="#393939"/>
<path d="M0.212158 271.946C0.212158 271.946 19.2636 271.946 19.2636 256.033C19.2636 241.115 0.212157 241.115 0.212157 241.115" stroke="#C6C6C6" stroke-width="7.54592" stroke-miterlimit="10"/>
<path d="M19.264 257.028L49.5507 257.028" stroke="#C6C6C6" stroke-width="7.99756" stroke-miterlimit="10"/>
</svg>
